<svg xmlns="http://www.w3.org/2000/svg" xmlns:xlink="http://www.w3.org/1999/xlink" width="152" height="45" viewBox="0 0 152 45">
    <defs>
        <path id="a" d="M76 0h76v45H0V0z"/>
    </defs>
    <g fill="none" fill-rule="evenodd">
        <g>
            <mask id="b" fill="#fff">
                <use xlink:href="#a"/>
            </mask>
            <path fill="#A6A6A6" d="M146.593 45H5.325A5.334 5.334 0 0 1 0 39.675V5.317C0 2.385 2.39 0 5.325 0h141.268C149.526 0 152 2.385 152 5.317v34.358c0 2.931-2.474 5.325-5.407 5.325" mask="url(#b)"/>
        </g>
        <path fill="#000" d="M150.91 39.676a4.31 4.31 0 0 1-4.316 4.309H5.324a4.316 4.316 0 0 1-4.322-4.309V5.316a4.32 4.32 0 0 1 4.323-4.314h141.267a4.314 4.314 0 0 1 4.317 4.314l.001 34.36z"/>
        <path fill="#FFF" d="M53.995 16.36l-.946-2.431h-3.113l-.935 2.431H48l3.069-7.887h.891l3.058 7.887h-1.023zm-1.243-3.311l-.88-2.376a12.372 12.372 0 0 1-.258-.797 10.509 10.509 0 0 0-.116-.38c-.059.227-.12.45-.181.665a9.614 9.614 0 0 1-.16.512l-.891 2.376h2.486zm4.51 3.311l-2.233-5.896h1.034l1.254 3.476c.059.161.121.341.187.539s.125.389.176.572c.051.183.088.334.11.451h.044c.022-.117.062-.27.121-.457a25.729 25.729 0 0 1 .374-1.105l1.254-3.476h1.034l-2.244 5.896h-1.111zm6.523-5.995c.719 0 1.25.158 1.595.473.345.315.517.818.517 1.507v4.015h-.704l-.187-.836h-.044c-.257.323-.528.561-.814.715-.286.154-.675.231-1.166.231-.535 0-.979-.141-1.331-.423-.352-.283-.528-.725-.528-1.326 0-.587.231-1.04.693-1.358.462-.32 1.173-.494 2.134-.523l1.001-.033v-.352c0-.491-.106-.832-.319-1.023-.213-.19-.513-.286-.902-.286-.308 0-.601.046-.88.137a6.303 6.303 0 0 0-.781.314l-.297-.726a4.43 4.43 0 0 1 .913-.357 4.044 4.044 0 0 1 1.1-.149zm1.155 3.113l-.869.033c-.733.03-1.241.147-1.523.352-.283.205-.424.495-.424.869 0 .33.1.572.302.726.202.154.46.231.776.231.491 0 .904-.137 1.237-.412.334-.276.501-.699.501-1.271v-.528zm3.278-5.225c.147 0 .277.05.39.149.114.099.171.254.171.467 0 .213-.057.368-.17.467a.578.578 0 0 1-.391.149.586.586 0 0 1-.407-.149c-.11-.099-.165-.254-.165-.467 0-.213.055-.368.165-.467a.586.586 0 0 1 .407-.149zm.473 2.211v5.896h-.968v-5.896h.968zm2.838 5.896h-.968V8h.968v8.36zm4.103-5.995c.719 0 1.25.158 1.595.473.345.315.517.818.517 1.507v4.015h-.704l-.187-.836h-.044c-.257.323-.528.561-.814.715-.286.154-.675.231-1.166.231-.535 0-.979-.141-1.331-.423-.352-.283-.528-.725-.528-1.326 0-.587.231-1.04.693-1.358.462-.32 1.173-.494 2.134-.523l1.001-.033v-.352c0-.491-.106-.832-.319-1.023-.213-.19-.513-.286-.902-.286-.308 0-.601.046-.88.137a6.303 6.303 0 0 0-.781.314l-.297-.726a4.43 4.43 0 0 1 .913-.357 4.044 4.044 0 0 1 1.1-.149zm1.155 3.113l-.869.033c-.733.03-1.241.147-1.524.352-.282.205-.423.495-.423.869 0 .33.1.572.302.726.202.154.46.231.776.231.491 0 .904-.137 1.237-.412.334-.276.501-.699.501-1.271v-.528zM80.538 8v2.035c0 .25-.005.482-.016.698a8.178 8.178 0 0 1-.039.512h.055c.169-.25.4-.458.693-.627.293-.169.671-.253 1.133-.253.733 0 1.322.255 1.765.764.444.51.666 1.271.666 2.283s-.224 1.775-.671 2.288c-.447.513-1.034.77-1.76.77-.462 0-.84-.084-1.133-.253a2.163 2.163 0 0 1-.693-.605h-.077l-.198.748h-.693V8h.968zm1.661 3.168c-.63 0-1.065.18-1.303.539-.239.36-.358.917-.358 1.672v.044c0 .726.12 1.281.358 1.666.238.386.68.578 1.325.578.528 0 .922-.194 1.182-.583.26-.389.391-.95.391-1.683 0-1.489-.532-2.233-1.595-2.233zm5.104 5.192h-.968V8h.968v8.36zm4.147-6.006c.499 0 .931.11 1.298.33.367.22.647.53.841.93.195.4.292.867.292 1.402v.583h-4.037c.015.667.185 1.175.512 1.524.326.348.782.522 1.369.522.374 0 .706-.035.996-.104.29-.07.588-.171.896-.303v.847c-.3.132-.598.23-.891.291a5.09 5.09 0 0 1-1.045.094c-.565 0-1.06-.114-1.485-.341a2.39 2.39 0 0 1-.995-1.012c-.239-.447-.358-1.001-.358-1.661 0-.645.108-1.199.325-1.661.216-.462.52-.818.912-1.067.393-.25.85-.374 1.37-.374zm-.011.792c-.462 0-.827.148-1.094.445-.268.298-.428.71-.479 1.238h3.003c-.007-.499-.125-.904-.352-1.216-.227-.311-.587-.467-1.078-.467zm11.924 2.255c0 .975-.247 1.73-.742 2.266-.496.535-1.165.803-2.008.803-.52 0-.984-.12-1.391-.357a2.49 2.49 0 0 1-.963-1.045c-.235-.459-.352-1.014-.352-1.667 0-.975.244-1.727.731-2.255.488-.528 1.157-.792 2.008-.792.528 0 .997.12 1.408.357.41.239.731.583.962 1.034.232.452.347 1.003.347 1.656zm-4.455 0c0 .697.137 1.248.412 1.655.276.408.714.611 1.315.611.594 0 1.03-.203 1.309-.61.279-.408.418-.96.418-1.656 0-.697-.14-1.243-.418-1.639-.279-.396-.719-.594-1.32-.594-.601 0-1.038.198-1.309.594-.271.396-.407.942-.407 1.639zm8.822-3.047c.704 0 1.236.172 1.595.517.36.345.539.895.539 1.65v3.839h-.957v-3.773c0-.946-.44-1.419-1.32-1.419-.653 0-1.104.183-1.353.55-.25.367-.374.895-.374 1.584v3.058h-.968v-5.896h.781l.143.803h.055c.19-.308.455-.537.792-.688.337-.15.693-.225 1.067-.225zm8.789 5.324c.147 0 .297-.011.451-.033.154-.022.279-.051.374-.088v.737c-.103.051-.25.093-.44.127-.19.033-.374.049-.55.049-.308 0-.592-.053-.853-.16a1.319 1.319 0 0 1-.632-.555c-.161-.264-.242-.634-.242-1.111v-3.432h-.836v-.462l.847-.385.385-1.254h.572v1.353h1.705v.748h-1.705v3.41c0 .36.086.625.258.797a.9.9 0 0 0 .666.259zM119.489 8v2.453c0 .293-.018.568-.055.825h.066c.19-.3.45-.528.775-.682.327-.154.68-.231 1.062-.231.711 0 1.248.17 1.611.511.364.342.545.89.545 1.645v3.839h-.957v-3.773c0-.946-.44-1.419-1.32-1.419-.66 0-1.113.185-1.358.556-.246.37-.369.9-.369 1.589v3.047h-.968V8h.968zm8.107 2.354c.499 0 .931.11 1.298.33.367.22.647.53.841.93.195.4.292.867.292 1.402v.583h-4.037c.015.667.185 1.175.511 1.524.327.348.783.522 1.37.522.374 0 .706-.035.996-.104.29-.07.588-.171.896-.303v.847c-.3.132-.598.23-.891.291a5.09 5.09 0 0 1-1.045.094c-.565 0-1.06-.114-1.485-.341a2.39 2.39 0 0 1-.995-1.012c-.239-.447-.358-1.001-.358-1.661 0-.645.108-1.199.325-1.661.216-.462.52-.818.913-1.067.392-.25.848-.374 1.369-.374zm-.011.792c-.462 0-.827.148-1.094.445-.268.298-.428.71-.479 1.238h3.003c-.007-.499-.125-.904-.352-1.216-.227-.311-.587-.467-1.078-.467zM33.922 22.257c-.033-3.626 2.971-5.39 3.108-5.472-1.7-2.478-4.338-2.817-5.264-2.844-2.215-.233-4.363 1.324-5.492 1.324-1.15 0-2.888-1.301-4.76-1.263-2.41.037-4.664 1.431-5.9 3.595-2.551 4.414-.648 10.9 1.796 14.467 1.223 1.747 2.652 3.698 4.522 3.628 1.83-.074 2.513-1.164 4.72-1.164 2.188 0 2.83 1.164 4.738 1.121 1.963-.031 3.2-1.755 4.38-3.519 1.412-2.001 1.98-3.973 2.002-4.075-.046-.015-3.813-1.452-3.85-5.798M30.32 11.594c.983-1.23 1.657-2.902 1.47-4.6-1.425.063-3.206.985-4.232 2.187-.907 1.06-1.718 2.797-1.508 4.43 1.6.12 3.242-.806 4.27-2.017M56.02 29.2l-1.266-3.91c-.134-.4-.385-1.34-.756-2.82h-.045c-.147.636-.385 1.577-.711 2.82l-1.245 3.91h4.023zm4.38 6.242h-2.557l-1.4-4.398h-4.869l-1.334 4.398h-2.49l4.824-14.971h2.98L60.4 35.442zM70.36 30c0-1.052-.237-1.918-.712-2.6-.52-.71-1.216-1.066-2.09-1.066-.592 0-1.13.198-1.611.588a2.729 2.729 0 0 0-.945 1.545c-.074.297-.111.54-.111.731v1.8c0 .785.24 1.448.723 1.99.481.54 1.107.81 1.878.81.904 0 1.607-.348 2.11-1.044.505-.696.757-1.614.757-2.755m2.446-.087c0 1.835-.497 3.287-1.49 4.352-.89.948-1.994 1.422-3.312 1.422-1.423 0-2.446-.51-3.068-1.532h-.045v5.687h-2.4V28.2c0-1.155-.031-2.34-.09-3.555h2.111l.134 1.712h.045c.8-1.29 2.016-1.933 3.646-1.933 1.275 0 2.339.503 3.19 1.51.853 1.008 1.279 2.333 1.279 3.977M82.786 30c0-1.052-.237-1.918-.714-2.6-.519-.71-1.212-1.066-2.087-1.066-.594 0-1.13.198-1.612.588-.483.394-.796.908-.945 1.545-.072.297-.11.54-.11.731v1.8c0 .785.24 1.448.72 1.99.482.54 1.108.81 1.88.81.905 0 1.608-.348 2.112-1.044.503-.696.756-1.614.756-2.755m2.446-.087c0 1.835-.498 3.287-1.49 4.352-.89.948-1.994 1.422-3.313 1.422-1.422 0-2.446-.51-3.066-1.532h-.045v5.687h-2.4V28.2c0-1.155-.031-2.34-.09-3.555h2.111l.134 1.712h.045c.8-1.29 2.015-1.933 3.646-1.933 1.274 0 2.336.503 3.191 1.51.85 1.008 1.277 2.333 1.277 3.977M99.126 31.244c0 1.274-.443 2.31-1.331 3.11-.977.874-2.336 1.31-4.082 1.31-1.612 0-2.905-.311-3.883-.932l.556-2a6.575 6.575 0 0 0 3.47.957c.904 0 1.608-.206 2.114-.612.503-.408.754-.955.754-1.636 0-.608-.207-1.12-.624-1.535-.412-.416-1.102-.8-2.066-1.158-2.624-.978-3.934-2.409-3.934-4.292 0-1.23.46-2.24 1.38-3.026.915-.786 2.139-1.178 3.668-1.178 1.363 0 2.496.236 3.4.71l-.6 1.956c-.845-.46-1.8-.69-2.868-.69-.844 0-1.504.208-1.977.624-.4.37-.6.82-.6 1.354 0 .593.228 1.081.688 1.467.4.354 1.126.74 2.18 1.154 1.289.519 2.236 1.125 2.845 1.82.606.695.91 1.56.91 2.597M107.062 26.446h-2.646v5.242c0 1.333.466 2 1.402 2 .428 0 .783-.038 1.065-.113l.066 1.822c-.473.176-1.095.265-1.866.265-.948 0-1.69-.288-2.223-.866-.534-.578-.802-1.548-.802-2.91v-5.442h-1.576v-1.8h1.576v-1.977l2.358-.71v2.687h2.646v1.802zM116.51 30.033c0-.996-.213-1.85-.644-2.561-.504-.862-1.223-1.292-2.155-1.292-.966 0-1.698.431-2.201 1.292-.431.712-.645 1.58-.645 2.606 0 .996.214 1.85.645 2.56.52.863 1.243 1.292 2.179 1.292.917 0 1.636-.44 2.155-1.314.443-.726.665-1.588.665-2.583m2.492-.077c0 1.658-.476 3.021-1.424 4.086-.995 1.098-2.313 1.643-3.958 1.643-1.587 0-2.849-.524-3.79-1.575-.941-1.052-1.412-2.377-1.412-3.975 0-1.673.484-3.044 1.456-4.11.97-1.067 2.279-1.599 3.924-1.599 1.584 0 2.86.525 3.822 1.578.922 1.02 1.382 2.337 1.382 3.952M126.803 26.756a4.179 4.179 0 0 0-.757-.067c-.844 0-1.497.32-1.956.957-.4.562-.6 1.273-.6 2.132v5.664h-2.4l.023-7.397c0-1.243-.03-2.376-.09-3.397h2.09l.088 2.065h.067c.253-.71.652-1.281 1.2-1.71a2.91 2.91 0 0 1 1.735-.578c.222 0 .422.015.6.044v2.287zM135.25 28.912c.015-.711-.141-1.326-.467-1.845-.415-.666-1.053-1-1.912-1-.785 0-1.424.326-1.911.978-.4.519-.637 1.14-.71 1.865h5v.002zm2.289.622c0 .43-.029.792-.088 1.088h-7.202c.029 1.066.376 1.88 1.045 2.443.607.504 1.392.756 2.356.756 1.066 0 2.039-.17 2.914-.51l.376 1.664c-1.023.446-2.23.666-3.622.666-1.676 0-2.99-.491-3.948-1.476-.955-.984-1.433-2.306-1.433-3.964 0-1.628.444-2.984 1.335-4.065.932-1.154 2.192-1.731 3.778-1.731 1.557 0 2.736.577 3.536 1.731.634.917.953 2.05.953 3.398z"/>
    </g>
</svg>
