<svg xmlns="http://www.w3.org/2000/svg" xmlns:xlink="http://www.w3.org/1999/xlink" width="200" height="200" viewBox="0 0 200 200">
    <defs>
        <path id="a" d="M.535 23.126c-1.29-2.03 10.647-4.019 20.855-10.219C36.053 4.001 36.625-.596 38.503.091 41.975 1.36 62.3 21.01 65.775 25.269c6.291 7.71-10.909 16.262-16.042 19.286-5.41 3.187-24.733 16.551-32.086 6.964C14.042 46.82 2.955 26.934.535 23.126z"/>
        <path id="c" d="M20.428 23.126H1.604s-1.92-.272-1.07-1.607c.852-1.335 7.36-8.93 18.717-15C29.51 1.036 35.83.626 35.83.626s9.164-.95 16.043 0c4.409.61 4.256 1.555 2.139 2.143-2.118.588-12.302 5.683-17.113 8.572-7.202 4.324-13.674 11.457-16.47 11.785z"/>
    </defs>
    <g fill="none" fill-rule="evenodd">
        <path fill="#BF2F41" d="M149.733 91.093v-1.607l3.208-2.143s1.53-.36 1.604 1.072c.075 1.431-1.07 2.678-1.07 2.678l-1.603 1.607-2.14-1.607z"/>
        <path fill="#AD2738" d="M149.733 91.093v-1.607s1.412 1.4 2.139 1.072c.76-.344 2.112-1.3 2.673-2.143.075 1.431-.156 2.072-.534 2.678-.446.714-2.14 1.607-2.14 1.607l-.973.4-1.143-1.053-.022-.954z"/>
        <path fill="#E4D4D4" d="M69.797 78.777c-8.764-5.07-22.042-5.62-29.632-1.23L5.195 97.772c-7.59 4.39-6.636 12.07 2.128 17.139l122.474 70.836c8.764 5.069 22.042 5.62 29.631 1.23l34.97-20.225c7.59-4.39 6.637-12.07-2.127-17.139L69.797 78.777z"/>
        <path fill="#2D3739" d="M110.11 161.185l-2.623 1.158s-2.974-8.219.176-12.158c3.15-3.939 8.04-1.692 10.4 0 2.36 1.693-7.953 11-7.953 11zM17.725 107.373l-2.14 1.07s-2.753-7.069 0-10.713c2.754-3.645 7.028-2.103 9.092-.536 2.063 1.566-6.952 10.178-6.952 10.178z"/>
        <path fill="#3A434A" d="M125.063 180.022c4.231-.76 7.557-4.286 7.557-4.286s2.965-5.936-1.604-16.071c-4.569-10.135-11.272-9.43-12.602-9.108-1.33.322-6.608 1.314-9.323 4.822-2.716 3.508 10.872 25.558 15.972 24.643z"/>
        <path fill="#85939A" d="M118.414 154.952c6.03 3.488 10.927 11.63 10.927 18.169 0 6.54-4.896 9.016-10.927 5.528-6.031-3.488-10.927-11.63-10.927-18.169 0-6.54 4.896-9.017 10.927-5.528z"/>
        <path fill="#414B4E" d="M113.324 153.37l.058.001.06.001.058.002.06.002.059.003.06.003.059.003.06.004.06.005.06.005.061.006.061.006.061.006.061.007.062.008.061.008.062.008.062.01.062.01.062.01.063.01.062.01.063.013.063.012.064.012.063.013.063.014.064.014.064.015.064.015.064.016.065.016.064.017.065.017.065.018.065.018.065.019.065.02.066.02.066.02.065.02.067.022.065.022.067.022.067.023.066.023.067.024.067.025.066.025.068.026.067.026.068.026.067.028.068.027.068.029.068.028.068.03.068.03.068.03.069.03.068.032.07.032.068.033.07.033.068.033.07.034.07.035.069.035.07.036.069.036.07.037.07.037.07.038.07.038.07.04.07.039.071.04.07.04.071.042.071.041.07.042.07.043.07.042.07.043.07.044.07.044.07.044.07.045.139.091.139.093.137.094.138.095.137.097.136.1.136.1.135.1.135.104.134.105.134.106.133.107.133.109.131.11.131.112.131.113.13.114.13.115.128.117.128.118.127.12.127.12.126.122.125.123.124.125.124.125.123.126.122.128.121.129.12.13.12.13.12.133.118.133.117.134.117.135.115.136.115.137.114.138.114.14.111.14.112.14.11.142.11.142.108.143.108.145.106.145.106.145.105.147.104.147.102.148.102.149.1.15.1.15.099.15.098.152.096.152.095.153.095.153.093.154.093.154.09.155.09.156.09.156.087.156.086.157.085.158.085.157.083.159.082.158.08.16.079.159.078.16.077.16.075.16.075.16.073.162.072.16.07.162.07.162.067.162.067.162.065.162.063.162.063.163.06.162.06.163.06.163.056.163.055.163.054.163.053.162.051.163.05.163.048.163.047.163.045.162.044.163.042.162.04.162.04.163.037.161.037.162.034.162.033.161.031.161.03.16.028.161.026.16.026.16.023.16.022.16.01.079.01.08.008.078.01.08.008.079.008.079.008.078.007.08.006.078.007.078.006.079.006.078.004.078.005.078.005.078.003.078.003.078.003.077.003.078.002.077.001.077.002.077v.306l-.002.076-.001.075-.002.075-.003.075-.003.074-.003.074-.003.073-.005.073-.005.073-.004.072-.006.072-.006.072-.007.07-.006.072-.007.07-.008.07-.008.07-.009.07-.009.068-.009.068-.01.068-.01.068-.01.068-.011.066-.012.067-.011.066-.013.066-.013.065-.012.065-.014.065-.014.064-.014.064-.015.063-.015.063-.015.063-.016.062-.016.062-.017.061-.017.061-.017.06-.018.061-.019.06-.018.06-.02.058-.018.059-.02.058-.02.058-.02.057-.022.057-.021.057-.022.056-.022.056-.022.055-.023.055-.023.055-.024.054-.024.053-.024.054-.025.053-.025.052-.026.052-.025.052-.026.051-.027.05-.026.051-.028.05-.027.05-.028.049-.029.049-.028.048-.029.048-.03.047-.03.047-.03.047-.029.046-.031.046-.031.045-.032.045-.031.045-.032.044-.032.043-.033.044-.034.042-.033.043-.033.042-.035.041-.034.041-.035.04-.035.041-.035.04-.036.04-.036.038-.036.038-.037.038-.037.038-.038.037-.037.037-.038.036-.038.036-.039.035-.038.035-.04.035-.04.034-.04.033-.04.034-.04.032-.04.033-.041.031-.042.032-.041.03-.042.031-.043.03-.042.03-.043.029-.043.029-.043.028-.044.028-.044.027-.044.027-.045.026-.045.026-.045.026-.045.025-.045.025-.046.024-.047.023-.046.024-.047.022-.047.023-.048.022-.047.02-.048.022-.048.02-.048.02-.049.02-.049.019-.05.018-.048.019-.05.017-.05.017-.05.017-.05.016-.052.016-.05.016-.052.014-.051.015-.052.014-.052.013-.052.013-.053.012-.053.012-.053.012-.053.011-.053.01-.054.01-.054.01-.054.01-.054.008-.055.008-.055.008-.055.007-.055.007-.055.006-.057.006-.055.005-.056.005-.057.004-.057.004-.056.004-.058.002-.057.003-.058.002-.057.001h-.058l-.058.001h-.118l-.058-.002-.06-.001-.059-.002-.059-.003-.06-.003-.06-.003-.06-.004-.06-.005-.06-.005-.06-.006-.061-.006-.061-.006-.061-.007-.062-.008-.061-.008-.062-.009-.062-.009-.062-.01-.062-.01-.063-.01-.062-.011-.064-.012-.062-.012-.064-.012-.063-.014-.064-.013-.063-.014-.064-.015-.064-.015-.064-.016-.065-.016-.064-.017-.065-.017-.065-.018-.065-.018-.065-.019-.066-.02-.065-.02-.066-.02-.065-.02-.066-.022-.067-.022-.066-.022-.066-.023-.067-.024-.067-.024-.067-.024-.067-.025-.067-.026-.067-.026-.068-.026-.067-.028-.068-.027-.068-.029-.068-.028-.068-.03-.068-.03-.069-.03-.068-.03-.069-.032-.069-.032-.069-.033-.068-.033-.07-.033-.069-.034-.069-.035-.07-.035-.07-.036-.07-.036-.07-.037-.07-.037-.07-.038-.07-.039-.07-.038-.07-.04-.07-.04-.071-.04-.07-.042-.071-.041-.07-.042-.07-.043-.071-.042-.07-.044-.07-.043-.07-.044-.07-.045-.07-.044-.138-.091-.139-.093-.138-.094-.137-.095-.137-.097-.136-.1-.136-.1-.135-.1-.135-.104-.134-.105-.134-.106-.133-.107-.132-.109-.132-.11-.132-.112-.13-.113-.13-.114-.13-.115-.128-.117-.128-.118-.127-.12-.127-.12-.126-.122-.125-.123-.124-.125-.124-.125-.123-.127-.122-.127-.121-.129-.121-.13-.12-.13-.119-.133-.118-.133-.117-.134-.117-.135-.116-.136-.115-.137-.113-.138-.113-.14-.113-.14-.11-.14-.111-.142-.11-.142-.108-.143-.108-.145-.107-.145-.105-.145-.105-.147-.103-.147-.104-.148-.101-.149-.1-.15-.1-.15-.1-.15-.097-.152-.096-.152-.096-.153-.094-.153-.093-.154-.093-.154-.09-.155-.09-.156-.09-.156-.087-.156-.087-.157-.085-.158-.084-.158-.083-.158-.081-.158-.081-.16-.08-.159-.077-.16-.077-.16-.076-.16-.074-.16-.073-.162-.072-.161-.07-.161-.07-.162-.067-.162-.067-.162-.065-.162-.064-.162-.062-.163-.061-.163-.06-.162-.058-.163-.057-.163-.056-.163-.054-.163-.052-.162-.051-.163-.05-.163-.048-.163-.047-.163-.045-.162-.044-.163-.042-.162-.04-.162-.04-.163-.037-.162-.037-.161-.034-.162-.033-.161-.031-.161-.03-.161-.028-.16-.027-.16-.025-.16-.023-.16-.021-.16-.01-.079-.01-.08-.01-.078-.009-.08-.008-.079-.008-.079-.008-.079-.007-.078-.007-.079-.006-.078-.006-.079-.005-.078-.006-.078-.004-.078-.004-.078-.004-.078-.004-.078-.002-.077-.003-.078-.002-.077-.001-.077-.001-.077-.001-.077V160.328l.002-.076.001-.075.002-.075.003-.075.002-.074.004-.074.004-.073.004-.073.004-.073.006-.072.005-.072.006-.072.006-.071.007-.07.007-.071.008-.07.008-.07.008-.07.01-.068.009-.068.01-.069.01-.067.01-.068.011-.066.011-.067.012-.066.013-.066.012-.065.013-.065.014-.065.013-.064.015-.064.014-.063.016-.063.015-.063.016-.062.016-.062.017-.061.017-.061.017-.06.018-.061.019-.06.018-.06.019-.058.02-.059.02-.058.02-.058.02-.057.021-.057.021-.057.022-.056.022-.056.022-.055.023-.055.023-.055.024-.054.024-.054.024-.053.025-.053.025-.052.025-.052.026-.052.026-.051.026-.051.027-.05.027-.05.028-.05.028-.05.028-.048.029-.048.029-.048.029-.047.03-.047.03-.047.03-.046.03-.046.032-.045.031-.045.032-.045.032-.044.033-.043.032-.044.033-.043.034-.042.033-.042.035-.041.034-.041.035-.041.035-.04.035-.04.036-.04.036-.038.036-.039.037-.038.037-.037.037-.037.038-.037.038-.036.038-.036.039-.035.038-.035.04-.035.04-.034.039-.034.04-.033.04-.032.041-.033.041-.032.042-.03.041-.032.042-.03.042-.03.043-.03.042-.03.044-.028.043-.028.044-.028.044-.027.044-.027.045-.026.044-.026.045-.026.046-.025.045-.025.046-.024.047-.023.046-.024.047-.022.047-.023.047-.022.048-.02.048-.022.048-.02.048-.02.05-.02.048-.019.049-.018.05-.019.05-.017.05-.017.05-.017.05-.016.05-.016.051-.016.052-.014.052-.015.05-.014.053-.013.052-.013.053-.013.052-.012.053-.011.053-.011.054-.01.054-.01.054-.01.054-.01.054-.008.055-.008.055-.008.055-.007.055-.007.056-.006.055-.006.057-.005.056-.005.056-.004.057-.004.056-.004.057-.002.058-.003.057-.002.058-.001h.058l.058-.001h.059zm-.076 3.75l-.026.001h-.026l-.025.002h-.024l-.026.002-.024.001-.023.002-.023.002-.024.002-.022.002-.023.002-.021.003-.022.002-.021.003-.02.003-.022.003-.02.003-.02.004-.019.003-.02.004-.017.003-.019.004-.019.004-.017.004-.018.004-.017.005-.016.004-.017.004-.017.005-.016.005-.015.004-.016.005-.015.005-.015.005-.015.005-.014.005-.015.006-.014.005-.014.005-.013.006-.013.005-.014.006-.012.005-.013.006-.013.006-.012.006-.012.006-.013.006-.012.006-.012.006-.011.007-.012.006-.01.006-.013.007-.01.007-.012.007-.011.006-.01.007-.012.007-.01.007-.011.008-.01.007-.01.007-.012.008-.01.008-.011.008-.01.008-.01.008-.011.009-.01.008-.01.009-.011.009-.01.01-.01.008-.011.01-.01.01-.01.01-.011.01-.01.01-.01.01-.011.011-.01.01-.01.012-.012.012-.01.011-.01.012-.011.013-.01.013-.011.012-.01.014-.011.013-.011.014-.01.015-.012.014-.01.015-.011.015-.011.015-.01.016-.012.017-.01.016-.012.017-.01.018-.012.017-.01.019-.012.018-.01.02-.012.018-.011.02-.01.02-.012.021-.01.021-.012.022-.01.021-.012.023-.01.023-.011.023-.011.024-.011.024-.01.025-.011.025-.011.026-.01.026-.011.027-.01.027-.011.028-.01.028-.01.028-.01.03-.011.03-.01.03-.01.03-.01.031-.01.032-.009.032-.01.033-.008.033-.01.033-.009.035-.009.035-.008.035-.009.036-.008.036-.008.037-.008.038-.008.037-.008.039-.008.04-.007.039-.007.04-.007.04-.007.042-.007.041-.006.042-.006.043-.006.043-.006.044-.005.045-.005.044-.005.046-.005.046-.004.046-.005.047-.003.048-.004.048-.003.049-.004.049-.003.05-.002.05-.003.05-.001.052-.002.052-.001.052-.001.053-.002.053v.218l.002.056v.055l.002.056.002.057.002.056.002.057.003.057.003.057.004.058.003.058.004.058.005.058.004.059.006.059.005.06.006.058.006.06.006.06.007.06.007.06.008.06.007.057.017.127.018.123.02.124.02.125.022.125.023.127.025.127.026.127.027.129.03.129.03.13.03.13.033.13.035.132.035.131.037.133.038.132.04.133.04.134.042.134.044.134.044.135.046.135.047.135.049.135.05.136.05.135.053.136.053.136.055.136.056.136.057.137.058.136.06.136.06.137.062.136.063.136.064.136.066.136.066.136.067.136.069.135.07.136.07.135.072.135.073.134.074.134.075.134.076.134.077.133.078.132.08.133.079.132.08.131.082.131.083.13.084.13.085.13.085.128.086.128.088.128.088.127.089.126.09.126.09.124.09.124.093.124.093.122.093.122.094.12.096.121.095.12.096.117.097.118.098.117.098.115.1.115.099.113.1.113.1.112.102.11.101.11.102.108.103.107.103.107.103.105.105.104.104.102.105.102.105.1.106.1.106.097.106.097.107.095.107.094.107.092.107.092.108.09.108.088.108.088.108.086.108.084.108.083.109.081.109.08.109.08.108.076.11.076.107.074.11.073.112.073.05.033.054.034.055.034.054.034.054.034.055.033.054.032.054.032.054.032.054.032.054.03.053.031.054.03.052.03.053.028.053.029.052.028.052.027.052.027.051.026.052.026.05.026.051.025.05.024.05.024.05.023.05.024.049.022.05.022.047.022.048.02.048.021.048.02.048.02.046.02.047.018.046.018.046.018.046.018.046.017.044.016.045.016.045.016.044.015.044.015.042.014.043.014.043.014.042.013.042.013.042.012.041.012.041.011.04.011.041.011.04.01.039.01.039.01.038.009.039.009.038.008.037.008.037.008.037.007.036.007.036.007.036.006.035.006.035.006.034.005.034.005.033.005.034.004.033.004.032.004.032.003.032.003.031.003.03.003.031.002.03.002.03.002.03.001.029.002h.027l.028.001h.028l.027.001h.106l.025-.002h.024l.025-.002.024-.001.025-.002.023-.002.023-.002.023-.002.021-.002.022-.003.022-.002.022-.003.02-.003.02-.003.02-.003.02-.004.02-.003.019-.004.018-.003.019-.004.019-.004.017-.004.017-.004.018-.005.016-.004.017-.004.017-.005.016-.005.015-.004.015-.005.016-.005.016-.005.014-.005.014-.005.015-.006.013-.005.014-.005.014-.006.013-.005.013-.006.013-.006.013-.005.013-.006.012-.006.013-.006.012-.006.012-.006.011-.006.013-.007.01-.006.012-.006.011-.007.012-.007.01-.006.012-.007.01-.007.012-.008.01-.006.01-.008.012-.007.01-.007.01-.008.011-.008.01-.008.011-.008.01-.008.01-.009.012-.008.01-.01.01-.008.01-.009.01-.01.01-.009.011-.01.01-.01.01-.01.011-.01.01-.01.01-.011.011-.011.01-.011.011-.012.01-.012.011-.011.011-.013.01-.013.01-.012.012-.014.01-.013.01-.014.012-.015.01-.014.012-.015.01-.015.01-.015.012-.016.01-.017.012-.016.01-.017.012-.018.01-.017.012-.019.01-.018.011-.019.012-.02.01-.02.012-.02.01-.02.011-.021.012-.022.01-.022.012-.022.01-.023.011-.023.011-.024.01-.024.012-.025.01-.025.011-.026.01-.026.011-.027.01-.027.011-.028.01-.028.01-.028.01-.03.01-.029.011-.03.01-.031.01-.031.01-.032.009-.032.01-.033.008-.033.01-.034.008-.034.01-.035.008-.035.009-.036.008-.036.008-.037.009-.037.007-.038.008-.04.008-.038.007-.04.007-.04.007-.04.007-.042.007-.041.006-.043.006-.042.006-.043.006-.044.005-.045.005-.045.005-.045.005-.046.004-.046.004-.047.004-.048.004-.048.004-.049.003-.049.003-.05.002-.05.002-.05.003-.052.001-.052.001-.052.002-.053v-.327l-.002-.055v-.056l-.003-.057-.002-.056-.002-.057-.003-.057-.003-.057-.003-.058-.004-.058-.004-.058-.005-.058-.005-.059-.005-.059-.005-.06-.006-.059-.006-.06-.006-.059-.007-.06-.007-.06-.008-.061-.007-.056-.017-.127-.018-.123-.02-.124-.02-.125-.022-.125-.023-.127-.025-.127-.026-.127-.028-.129-.028-.129-.03-.13-.032-.13-.033-.13-.034-.132-.035-.131-.037-.133-.038-.132-.04-.134-.04-.133-.042-.134-.044-.134-.044-.135-.046-.135-.047-.135-.049-.135-.05-.136-.05-.135-.053-.136-.053-.136-.055-.136-.056-.137-.057-.136-.058-.136-.06-.137-.06-.136-.062-.136-.063-.136-.064-.136-.065-.136-.067-.136-.068-.136-.068-.135-.07-.136-.07-.135-.072-.135-.074-.134-.073-.134-.075-.134-.076-.134-.077-.133-.078-.133-.08-.132-.08-.132-.08-.131-.082-.131-.083-.13-.083-.13-.085-.13-.085-.128-.087-.129-.087-.127-.088-.127-.089-.126-.09-.126-.09-.124-.09-.125-.093-.123-.093-.122-.094-.122-.094-.121-.094-.12-.096-.12-.096-.118-.098-.117-.097-.117-.098-.115-.1-.115-.099-.113-.1-.113-.1-.112-.101-.11-.102-.11-.102-.108-.103-.107-.103-.107-.104-.105-.104-.104-.104-.102-.105-.102-.105-.1-.106-.1-.106-.097-.106-.097-.107-.095-.107-.094-.107-.093-.107-.091-.108-.09-.108-.089-.108-.087-.108-.086-.109-.084-.108-.083-.108-.082-.109-.08-.108-.078-.11-.077-.108-.076-.108-.074-.11-.073-.112-.073-.05-.033-.055-.034-.054-.034-.054-.034-.054-.034-.055-.033-.054-.032-.054-.033-.054-.031-.054-.032-.054-.03-.053-.031-.053-.03-.054-.03-.052-.028-.053-.029-.052-.028-.052-.027-.052-.027-.051-.026-.052-.026-.05-.026-.051-.025-.05-.024-.051-.024-.05-.024-.048-.022-.05-.023-.049-.022-.048-.022-.049-.02-.048-.021-.047-.02-.047-.02-.047-.02-.047-.018-.046-.018-.046-.018-.046-.018-.046-.017-.044-.016-.046-.016-.044-.016-.043-.015-.044-.015-.044-.014-.042-.014-.044-.014-.041-.013-.043-.013-.041-.012-.042-.012-.04-.011-.04-.011-.041-.011-.04-.01-.039-.01-.04-.01-.038-.009-.038-.009-.038-.008-.037-.008-.037-.008-.037-.007-.036-.007-.036-.007-.036-.006-.035-.006-.035-.006-.035-.005-.033-.005-.033-.005-.035-.004-.032-.004-.032-.004-.032-.003-.032-.003-.032-.003-.03-.003-.03-.002-.03-.002-.03-.002-.03-.001-.028-.002h-.029l-.027-.001-.028-.001h-.081z"/>
        <path fill="#9A8585" d="M118.414 157.85c4.555 2.636 8.253 8.785 8.253 13.724 0 4.94-3.698 6.81-8.253 4.176-4.555-2.635-8.254-8.784-8.254-13.723 0-4.94 3.699-6.81 8.254-4.176z"/>
        <path fill="#BD9B9B" d="M118.414 161.33c2.784 1.61 5.045 5.37 5.045 8.388 0 3.02-2.26 4.163-5.045 2.553-2.785-1.61-5.045-5.37-5.045-8.388 0-3.02 2.26-4.163 5.045-2.553z"/>
        <path fill="#FDEDD3" d="M118.414 163.65c1.604.927 2.906 3.092 2.906 4.831 0 1.74-1.302 2.398-2.906 1.47-1.604-.927-2.906-3.092-2.906-4.831 0-1.74 1.302-2.398 2.906-1.47z"/>
        <path fill="#3A434A" d="M31.62 125.87c4.966-1.412 7.556-4.285 7.556-4.285s2.965-5.936-1.604-16.071c-4.569-10.135-11.271-9.429-12.602-9.108-1.33.322-6.607 1.315-9.323 4.822-2.716 3.508 10.988 26.061 15.972 24.643z"/>
        <path fill="#85939A" d="M24.97 100.8c6.031 3.489 10.927 11.63 10.927 18.17 0 6.54-4.896 9.017-10.927 5.529-6.03-3.489-10.927-11.63-10.927-18.17 0-6.539 4.896-9.016 10.927-5.528z"/>
        <path fill="#414B4E" d="M19.88 99.22h.058l.06.002.058.001.06.002.059.003.06.003.06.003.06.005.06.004.06.005.06.006.061.006.061.007.061.007.062.007.061.008.062.009.062.009.062.01.062.01.063.01.063.011.062.012.063.012.064.012.063.014.064.013.063.015.064.014.064.015.064.016.065.016.064.017.065.017.065.018.065.019.065.018.066.02.065.02.066.02.066.02.066.022.066.022.066.022.066.023.067.024.067.024.067.024.067.026.067.025.067.026.068.027.067.027.068.027.068.029.068.029.068.029.068.03.069.03.068.03.069.032.069.032.068.033.07.033.069.034.069.033.07.035.069.035.07.036.07.036.069.037.07.037.07.038.07.039.07.039.071.039.07.04.071.04.07.042.071.041.07.042.071.043.07.042.07.044.07.043.07.044.07.045.07.045.138.09.139.093.138.094.137.095.137.097.136.1.136.1.136.1.134.104.135.105.133.106.133.108.133.108.132.11.13.112.131.113.13.114.13.115.128.118.128.118.127.119.127.12.126.123.125.122.124.125.124.125.123.127.122.127.121.129.121.13.12.13.119.133.118.133.117.134.117.136.116.136.114.136.114.138.114.14.112.14.111.14.11.142.11.142.108.143.108.145.107.145.105.145.105.147.104.148.103.147.101.15.1.149.1.15.1.15.097.152.096.152.096.153.094.153.093.154.093.155.09.154.09.156.09.156.087.157.086.157.086.157.084.158.083.158.082.159.08.159.08.159.077.16.077.16.076.16.074.161.073.16.072.162.07.161.07.162.067.162.067.162.065.162.064.163.062.162.061.163.06.162.058.163.057.163.056.163.054.163.052.163.051.163.05.162.048.163.047.163.045.162.044.163.042.163.04.161.04.163.038.162.036.161.034.162.033.161.031.162.03.16.028.16.027.16.025.16.023.16.021.16.01.079.01.08.01.078.009.08.008.079.008.079.008.078.007.08.007.078.006.079.006.078.006.078.005.078.004.079.004.077.004.079.004.077.002.077.003.078.002.077.001.077.002.077v.306l-.002.076-.001.075-.002.075-.003.075-.002.074-.004.074-.004.074-.004.073-.004.072-.005.073-.006.071-.006.072-.006.071-.007.07-.007.071-.008.07-.008.07-.008.07-.01.068-.009.068-.01.069-.01.068-.01.067-.011.066-.012.067-.011.066-.013.066-.012.066-.013.064-.014.065-.014.064-.014.064-.014.063-.016.064-.015.062-.016.063-.016.061-.017.062-.017.06-.017.061-.018.06-.018.06-.019.06-.019.059-.02.058-.02.058-.02.058-.02.058-.02.056-.022.057-.022.056-.022.056-.022.055-.023.056-.023.054-.024.054-.024.054-.024.053-.025.053-.025.052-.025.052-.026.052-.026.051-.026.051-.027.05-.027.05-.028.05-.028.05-.028.048-.029.048-.029.048-.029.048-.03.046-.03.047-.03.047-.03.045-.032.046-.031.045-.032.044-.032.044-.032.043-.033.044-.033.043-.034.042-.033.042-.034.042-.035.04-.035.041-.035.04-.035.04-.036.04-.036.038-.036.039-.037.038-.037.037-.037.038-.038.036-.038.037-.038.035-.039.036-.038.035-.04.034-.04.034-.039.034-.04.033-.04.033-.041.032-.041.032-.041.031-.042.031-.042.03-.042.03-.043.03-.043.03-.043.028-.043.028-.044.028-.044.027-.044.027-.044.027-.045.025-.045.026-.046.025-.045.025-.046.024-.047.024-.046.023-.047.023-.047.022-.047.022-.048.021-.048.021-.048.02-.048.02-.049.02-.049.02-.049.017-.05.019-.05.017-.05.017-.05.018-.05.016-.05.015-.051.016-.052.015-.051.014-.052.014-.052.013-.052.013-.053.013-.052.012-.053.011-.054.012-.053.01-.054.01-.054.01-.054.009-.054.008-.055.009-.055.007-.055.007-.055.007-.055.007-.056.005-.056.005-.056.005-.057.004-.057.004-.056.004-.058.003-.057.002-.057.002-.058.001-.058.001h-.175l-.059-.001-.059-.002-.06-.002-.059-.002-.06-.004-.059-.003-.06-.004-.06-.005-.06-.005-.061-.006-.061-.006-.061-.006-.061-.007-.062-.008-.061-.008-.062-.009-.062-.009-.062-.009-.062-.01-.063-.01-.062-.012-.063-.011-.063-.013-.063-.012-.064-.013-.063-.014-.064-.014-.064-.015-.064-.015-.064-.016-.065-.016-.064-.017-.065-.017-.065-.018-.065-.018-.065-.019-.065-.019-.066-.02-.065-.02-.066-.021-.066-.021-.066-.022-.067-.023-.066-.023-.067-.023-.067-.025-.066-.024-.067-.025-.068-.026-.067-.026-.067-.026-.068-.027-.068-.028-.068-.029-.068-.028-.068-.03-.068-.03-.068-.03-.069-.03-.068-.032-.07-.032-.068-.032-.07-.034-.068-.033-.07-.034-.069-.034-.07-.036-.07-.036-.069-.036-.07-.037-.07-.037-.07-.038-.07-.038-.07-.04-.07-.039-.071-.04-.07-.04-.071-.041-.071-.042-.07-.042-.07-.042-.07-.043-.071-.043-.07-.044-.07-.044-.07-.044-.07-.045-.138-.091-.139-.093-.137-.093-.138-.096-.137-.097-.136-.099-.136-.1-.135-.102-.135-.103-.134-.105-.134-.106-.133-.107-.132-.109-.132-.11-.131-.111-.131-.113-.13-.115-.13-.115-.128-.117-.128-.118-.127-.12-.127-.12-.125-.122-.126-.123-.124-.125-.124-.125-.123-.126-.122-.128-.121-.129-.12-.13-.12-.13-.12-.133-.118-.133-.117-.134-.117-.135-.115-.136-.115-.137-.114-.138-.113-.14-.112-.139-.112-.14-.11-.142-.11-.143-.108-.143-.108-.144-.106-.146-.106-.145-.105-.147-.104-.147-.102-.148-.102-.149-.1-.15-.1-.15-.099-.15-.098-.152-.096-.152-.095-.153-.095-.153-.093-.154-.092-.154-.091-.155-.09-.156-.09-.156-.087-.156-.086-.157-.085-.157-.085-.158-.083-.158-.081-.159-.08-.16-.08-.159-.078-.16-.077-.16-.076-.16-.074-.16-.073-.162-.072-.161-.07-.161-.07-.162-.067-.162-.067-.162-.065-.162-.063-.162-.063-.163-.061-.162-.06-.163-.058-.163-.057-.162-.055-.163-.054-.163-.053-.163-.051-.163-.05-.163-.048-.163-.047-.162-.045-.163-.044-.163-.042-.162-.04-.162-.04-.163-.037-.161-.036-.162-.035-.161-.033-.162-.031-.16-.03-.162-.028-.16-.027-.16-.024-.16-.024-.16-.021-.159-.01-.08-.01-.079-.01-.08-.008-.079-.009-.078-.008-.08-.008-.078-.007-.08-.007-.078-.006-.078-.006-.079-.005-.078-.005-.078-.005-.078-.004-.078-.004-.078-.003-.078-.003-.077-.003-.077-.002-.078-.001-.077-.001-.077-.001-.077V106.177l.002-.076.001-.075.002-.075.003-.075.003-.074.003-.074.004-.073.004-.073.005-.073.005-.072.005-.072.006-.072.006-.07.007-.072.007-.07.008-.07.008-.07.009-.069.009-.069.009-.068.01-.068.01-.068.01-.067.011-.067.012-.067.012-.066.012-.066.012-.065.013-.065.014-.065.014-.064.014-.064.015-.063.015-.063.015-.063.016-.062.016-.061.017-.062.017-.061.018-.06.017-.061.019-.06.018-.06.02-.058.019-.059.02-.058.02-.058.02-.057.021-.057.021-.057.022-.056.022-.056.023-.055.022-.055.024-.055.023-.054.024-.053.024-.054.025-.052.025-.053.025-.052.026-.052.026-.051.027-.05.026-.051.028-.05.027-.05.028-.049.028-.049.03-.048.028-.048.03-.047.029-.047.03-.047.03-.046.031-.046.031-.045.032-.045.031-.044.032-.044.033-.044.032-.044.033-.042.034-.042.034-.043.034-.041.034-.041.035-.04.035-.041.035-.04.036-.039.036-.039.036-.039.037-.038.037-.037.037-.037.038-.037.038-.036.038-.036.039-.035.039-.035.039-.035.04-.034.04-.033.04-.034.04-.032.04-.032.041-.032.042-.032.041-.03.042-.031.043-.03.042-.03.043-.03.043-.027.043-.029.044-.028.044-.027.044-.027.045-.026.045-.026.045-.025.045-.026.046-.024.046-.024.046-.024.046-.024.047-.022.047-.023.048-.022.047-.021.048-.02.048-.021.048-.02.05-.02.048-.019.05-.018.049-.019.05-.017.05-.017.05-.017.05-.016.05-.016.052-.015.051-.015.051-.015.052-.014.052-.013.052-.013.053-.012.053-.012.053-.012.053-.01.053-.012.054-.01.054-.01.054-.009.054-.008.055-.008.055-.008.055-.007.055-.007.056-.006.056-.006.056-.005.056-.005.056-.004.057-.004.057-.003.057-.003.057-.003.058-.001.057-.002h.058l.058-.001h.059zm-.076 3.75h-.026l-.025.001-.026.001-.025.001-.024.001-.024.001-.024.002-.024.002-.022.002-.023.002-.022.003-.022.002-.022.002-.021.003-.02.003-.021.003-.02.004-.02.003-.02.003-.019.004-.019.004-.018.003-.018.004-.018.004-.017.005-.018.004-.016.004-.017.005-.017.004-.016.005-.016.004-.015.005-.015.005-.015.005-.015.005-.014.006-.015.005-.014.005-.013.005-.014.006-.013.005-.013.006-.013.006-.013.006-.013.005-.012.006-.013.006-.012.006-.011.006-.013.006-.011.007-.012.006-.011.007-.011.006-.011.007-.012.007-.01.007-.012.007-.01.006-.011.007-.011.008-.01.007-.011.008-.01.007-.011.008-.01.008-.011.009-.01.008-.01.008-.011.009-.01.008-.01.009-.011.009-.01.01-.01.009-.011.01-.01.01-.01.01-.011.01-.01.01-.011.011-.01.011-.01.011-.011.012-.01.012-.011.012-.01.012-.011.013-.01.013-.012.013-.01.013-.011.014-.01.015-.011.014-.011.015-.011.015-.011.016-.01.015-.012.016-.01.018-.012.016-.01.018-.012.018-.01.018-.012.019-.01.018-.012.02-.01.02-.012.02-.01.02-.012.022-.01.021-.012.022-.01.022-.011.023-.011.023-.011.025-.01.024-.012.024-.01.026-.011.025-.01.026-.011.027-.01.027-.011.028-.01.028-.01.029-.01.029-.01.03-.01.03-.01.03-.01.031-.01.032-.01.032-.01.033-.008.033-.01.034-.009.034-.008.035-.01.035-.008.036-.008.036-.008.037-.008.038-.008.037-.008.039-.008.04-.007.039-.007.04-.007.04-.007.042-.006.041-.007.042-.006.043-.006.044-.005.044-.006.044-.005.045-.005.045-.005.046-.004.047-.004.047-.004.047-.004.048-.003.049-.004.05-.002.049-.003.05-.002.05-.002.052-.002.052-.001.052-.001.053-.001.053v.274l.002.056.001.055.002.057.002.056.002.057.003.057.003.057.004.058.004.058.004.058.004.058.005.06.005.058.005.06.006.059.006.06.006.059.007.06.007.06.008.061.007.056.017.127.018.124.02.123.02.125.022.125.023.127.025.127.026.127.028.129.028.129.03.13.032.13.033.13.034.132.035.132.037.132.038.132.04.134.04.133.042.134.044.134.044.135.046.135.047.135.049.135.05.136.05.136.053.136.053.135.055.137.056.136.057.136.058.136.06.137.06.136.062.136.063.136.064.136.066.136.066.136.068.136.068.136.07.135.07.135.072.135.073.134.074.135.075.133.076.134.077.133.078.133.08.132.08.132.08.131.082.131.083.13.083.13.085.13.085.129.087.128.087.127.088.127.089.126.09.126.09.124.091.125.092.123.093.122.093.122.095.121.095.12.095.12.096.117.098.118.097.117.098.115.1.115.099.114.1.112.1.112.101.11.102.11.102.108.103.108.103.106.104.105.104.103.104.103.105.102.106.1.105.1.106.097.106.097.107.095.107.094.107.093.107.091.108.09.108.089.108.087.108.086.108.084.109.083.108.082.109.08.109.078.108.078.11.075.108.075.108.072.113.073.05.033.055.035.054.033.054.034.054.034.054.033.055.032.054.032.054.033.054.03.054.032.053.03.054.03.053.03.053.029.052.028.052.028.052.027.052.027.052.027.05.026.052.025.05.025.05.024.05.024.05.024.05.023.049.022.049.022.048.022.049.021.048.02.047.02.048.02.046.02.047.018.047.019.046.018.045.017.046.017.045.016.044.017.045.015.044.015.044.015.043.014.043.014.043.014.042.013.042.013.041.012.041.012.041.011.04.011.04.01.04.012.04.01.039.009.039.009.038.009.038.008.037.008.037.008.037.007.036.007.036.007.036.007.035.005.035.006.034.005.034.005.034.005.033.004.033.004.033.004.031.003.032.004.031.002.03.003.031.003.03.001.03.002.03.001.028.002.029.001h.028l.027.001h.107l.026-.001h.025l.025-.002h.025l.024-.002.023-.002.024-.001.023-.003.022-.002.022-.002.022-.003.022-.002.021-.003.021-.003.02-.003.02-.003.02-.003.02-.004.019-.003.019-.004.018-.004.018-.004.018-.004.018-.004.017-.004.017-.005.016-.004.017-.005.016-.005.015-.004.016-.005.016-.005.014-.005.015-.005.014-.005.015-.005.014-.006.014-.005.013-.005.014-.006.013-.006.013-.005.012-.006.013-.006.012-.006.013-.006.012-.006.012-.006.012-.006.011-.006.012-.007.011-.006.012-.007.01-.006.012-.007.011-.007.011-.007.01-.007.011-.007.011-.008.01-.007.011-.007.01-.008.011-.008.01-.008.011-.008.01-.008.011-.008.01-.01.01-.008.011-.009.01-.009.01-.009.01-.01.011-.01.01-.01.011-.01.01-.01.01-.01.011-.01.01-.012.011-.011.01-.011.011-.013.01-.012.011-.012.01-.013.011-.013.01-.012.012-.014.01-.014.01-.014.012-.015.01-.015.011-.015.011-.015.011-.016.011-.016.011-.017.01-.017.012-.017.01-.018.012-.018.01-.019.012-.02.01-.018.012-.02.01-.02.012-.021.01-.02.012-.023.01-.022.012-.022.01-.023.012-.023.01-.024.011-.024.01-.025.012-.025.01-.026.01-.026.011-.027.01-.027.011-.027.01-.029.01-.028.011-.03.01-.029.01-.03.01-.03.01-.032.01-.032.009-.032.01-.033.009-.033.009-.034.009-.034.009-.035.008-.035.009-.036.008-.036.009-.037.008-.037.008-.038.007-.039.008-.039.007-.04.007-.04.007-.04.007-.041.007-.042.006-.042.006-.043.006-.043.006-.044.005-.044.005-.045.005-.046.005-.046.004-.046.005-.047.004-.048.003-.048.004-.048.003-.05.003-.05.002-.05.003-.05.002-.052.001-.052.002-.052v-.053l.001-.053.001-.054v-.164l-.001-.055-.001-.056-.002-.056-.002-.057-.002-.056-.002-.057-.003-.057-.003-.057-.003-.058-.004-.057-.004-.059-.005-.058-.004-.059-.006-.059-.005-.059-.006-.06-.006-.059-.006-.06-.007-.06-.007-.06-.008-.061-.007-.056-.017-.127-.018-.123-.02-.124-.02-.125-.022-.125-.023-.127-.025-.126-.026-.128-.027-.129-.029-.128-.03-.13-.032-.13-.032-.13-.035-.132-.035-.132-.037-.132-.038-.133-.04-.134-.04-.133-.042-.134-.043-.134-.045-.135-.046-.134-.047-.135-.049-.136-.05-.135-.05-.136-.053-.136-.053-.136-.055-.136-.056-.136-.057-.137-.058-.136-.06-.136-.06-.136-.062-.137-.063-.136-.064-.136-.065-.136-.067-.136-.067-.136-.069-.135-.07-.135-.07-.135-.072-.135-.073-.135-.074-.134-.075-.134-.076-.133-.077-.134-.078-.132-.079-.133-.08-.132-.08-.13-.083-.132-.082-.13-.084-.13-.085-.13-.085-.128-.086-.128-.088-.128-.088-.127-.088-.126-.09-.125-.09-.125-.092-.124-.092-.124-.093-.122-.093-.122-.094-.121-.095-.12-.096-.119-.096-.118-.097-.118-.098-.116-.098-.116-.099-.114-.1-.114-.1-.113-.1-.111-.101-.111-.102-.11-.102-.108-.103-.107-.103-.106-.104-.105-.104-.104-.104-.103-.105-.102-.105-.1-.106-.1-.106-.097-.106-.096-.107-.096-.107-.094-.107-.093-.107-.09-.108-.09-.108-.09-.108-.086-.108-.087-.108-.084-.108-.083-.109-.081-.109-.08-.108-.079-.109-.077-.109-.076-.109-.074-.108-.073-.113-.073-.05-.033-.054-.034-.055-.034-.054-.034-.054-.033-.054-.034-.054-.032-.055-.032-.053-.032-.054-.032-.054-.03-.054-.03-.053-.031-.053-.03-.053-.028-.053-.028-.052-.028-.052-.028-.052-.027-.051-.026-.051-.026-.051-.026-.051-.024-.05-.025-.05-.024-.05-.024-.05-.022-.049-.023-.049-.022-.048-.022-.049-.02-.047-.021-.048-.02-.047-.02-.047-.02-.047-.018-.046-.018-.046-.018-.046-.018-.045-.016-.046-.017-.044-.016-.044-.016-.044-.015-.044-.014-.044-.015-.043-.014-.042-.014-.043-.013-.042-.012-.04-.013-.042-.012-.041-.01-.04-.012-.04-.01-.04-.01-.04-.011-.039-.01-.038-.009-.039-.008-.037-.009-.038-.008-.037-.008-.037-.007-.036-.007-.036-.006-.036-.007-.035-.006-.034-.006-.035-.005-.034-.005-.033-.005-.034-.004-.033-.004-.032-.003-.032-.004-.032-.003-.03-.003-.032-.003-.03-.002-.03-.002-.03-.002-.03-.001-.028-.001-.028-.001-.029-.001-.027-.001h-.081z"/>
        <path fill="#9A8585" d="M24.97 103.7c4.555 2.635 8.254 8.784 8.254 13.724 0 4.939-3.699 6.81-8.254 4.175-4.555-2.634-8.253-8.784-8.253-13.723 0-4.94 3.698-6.81 8.253-4.176z"/>
        <path fill="#BD9B9B" d="M24.97 107.18c2.785 1.61 5.045 5.369 5.045 8.388s-2.26 4.162-5.045 2.552c-2.784-1.61-5.045-5.369-5.045-8.388 0-3.02 2.26-4.163 5.045-2.553z"/>
        <path fill="#FDEDD3" d="M24.97 109.499c1.604.927 2.906 3.092 2.906 4.831 0 1.74-1.302 2.398-2.906 1.47-1.604-.927-2.906-3.092-2.906-4.831 0-1.74 1.302-2.398 2.906-1.47z"/>
        <path fill="#CC3A37" d="M9.626 86.808s-1.217 10.713 4.813 15c-.32-2.34 2.325-11.22 13.903-1.072 11.578 10.149 10.695 19.286 10.695 19.286l68.45 42.321s-5.701-18.747 11.764-10.178c5.767 2.828 13.415 14.881 12.3 23.035 2.215 1.065 17.605 4.582 32.62-4.285 15.016-8.868 23.056-13.352 24.6-16.608.473-1.327 3.984-4.553 3.742-8.035-.362-4.55-.534-6.429-.534-6.429l-59.359 17.679s-3.908-6.445-12.3-10.179c-8.39-3.734-15.852-4.4-17.111 5.728-8.93-5.628-59.359-36.263-59.359-36.263s-3.28-15.793-14.973-21.965c-11.693-6.172-9.276-3.48-11.765-3.214-2.488.266-5.846-.864-7.486-4.822"/>
        <path fill="#CC3A37" d="M193.06 135.558s1.749 4.183-.012 9.107c-2.104 2.895-31.955 30.977-58.289 20.892-2.629-1.006-3.419-4.803-5.347-7.5-1.929-2.696 4.277-3.75 4.277-3.75s11.232 15.07 41.177-3.845c10.948-6.916 18.194-14.904 18.194-14.904z"/>
        <path fill="#CC374A" d="M132.62 163.415v1.607s6.574 3.792 13.904 3.214c7.33-.578 15.72-1.228 23.53-5.893 7.808-4.665 15.293-8.837 18.716-12.321 3.424-3.484 5.578-5.022 4.942-12.176-.67.155-.664.39-.664.39s-.373 5.842-9.09 11.25c-8.719 5.408-17.939 11.121-20.322 12.321-2.383 1.2-13.024 5.73-24.599 3.75-2.023-.413-6.417-2.142-6.417-2.142z"/>
        <path fill="#4798CC" d="M64.464 113.975c.15.096.242.262.242.441v2.51a.228.228 0 0 1-.35.193l-5.286-3.369a.534.534 0 0 1-.246-.45v-2.505a.229.229 0 0 1 .35-.193l5.29 3.373z"/>
        <path fill="#2C3E42" d="M64.464 113.975c.15.096.242.262.242.441v1.358l-4.575-2.868-.04 1.496-1.021-.652a.534.534 0 0 1-.246-.45v-2.505a.229.229 0 0 1 .35-.193l5.29 3.373z"/>
        <path fill="#3F4F53" d="M165.504 160.218a.536.536 0 0 0-.263.462v4.4a.222.222 0 0 0 .338.19c2.38-1.474 16.58-10.26 18.659-11.546a.536.536 0 0 0 .254-.456v-3.85a.222.222 0 0 0-.334-.192l-18.654 10.992z"/>
        <path fill="#F6F5F3" d="M166.039 160.58a.536.536 0 0 0-.264.462v3.046a.222.222 0 0 0 .339.189l17.59-10.884a.536.536 0 0 0 .253-.456v-2.527a.222.222 0 0 0-.334-.191l-17.584 10.362z"/>
        <path fill="#F04240" d="M62.567 43.528L57.754 40.2s-4.695-1.426-16.043 3.328C30.363 48.28 21.167 55.487 16.717 60.022c-4.451 4.534-8.257 13.727-2.674 17.143 5.583 3.415 119.646 77.678 119.646 77.678s17.482 2.622 27.274-2.678c19.492-10.551 28.836-20.205 28.342-23.036-.494-2.832-.923-5.844-4.813-9.107-3.89-3.264-25.68-19.822-25.68-19.822s-21.225-20.83-28.865-26.25c-7.64-5.419-37.724-23.873-51.337-28.928-2.924-1.189-6.12-1.564-16.043-1.494z"/>
        <path fill="#FF7487" d="M132.62 137.165l27.189 15.37s-1.553 1.44-2.59 1.071c-1.354-.48-25.045-15.288-24.599-16.441z"/>
        <path fill="#CC374A" d="M153.476 154.307s26.754-5.753 34.76-27.952c.697.796 3.31 2.458 4.824 9.203-4.862 6.944-24.924 22.825-40.654 24.642-.456-2.702.535-4.23.535-4.23l.535-1.663z"/>
        <path fill="#CC3A37" d="M183.957 137.951s-1.65-7.804-15.508-23.036c-.729-.09-.535 0-.535 0s10.11 10.565 14.439 23.036c.663.327 1.604 0 1.604 0z"/>
        <path fill="#992B29" d="M159.358 151.093c6.028-3.207 18.219-10.806 21.39-12.857 1.823-1.178 2.053 5.444.535 6.964-2.94 2.947-13.814 9.554-17.647 10.715-1.945.589-6.56-3.608-4.278-4.822z"/>
        <path fill="#E7EDE0" d="M137.968 151.629c.592-.073 7.539-.043 10.695.536 5.31.973 10.967 4.375 10.076 5.892-.891 1.518-9.195 3.41-15.423 3.215-4.099-.13-9.67-.186-9.626-4.822.044-4.677 3.62-4.74 4.278-4.821zM190.91 131.272c-.026 3.212-2.377 7.985-5.883 10.714-.956-4.443-1.181-18.42 2.139-19.286 1.49-.388 3.768 5.338 3.743 8.572z"/>
        <path fill="#CC3A37" d="M20.856 66.986s17.914-2.067 26.812 1.607c8.898 3.675 30.198 16.483 43.776 27.857 5.444 10.028 19.251 32.87 19.251 32.87l16.578 15.88-.535.536-26.203-17.238S24.705 81.416 21.39 74.442c-1.295-2.3-3.764-5.57-.534-7.456z"/>
        <path fill="#626B6E" d="M91.444 97.522c-1.29-2.03 10.647-4.02 20.855-10.22 14.663-8.906 15.235-13.503 17.113-12.816 3.472 1.27 23.798 20.92 27.272 25.179 6.291 7.71-10.909 16.261-16.042 19.285-5.41 3.187-24.733 16.552-32.086 6.965-3.605-4.7-14.692-24.585-17.112-28.393z"/>
        <g transform="translate(90.91 74.396)">
            <mask id="b" fill="#fff">
                <use xlink:href="#a"/>
            </mask>
            <path fill="#FFF" fill-opacity=".094" d="M14.973 12.907s38.975 7.118 52.168 30.04c10.702-5.71 3.256-7.488 1.843-12.856-1.413-5.37-14.158-24.104-19.786-27.858C43.57-1.52 35.212-4.236 32.62.023c-2.592 4.26-17.647 12.884-17.647 12.884z" mask="url(#b)"/>
        </g>
        <path fill="#626B6E" d="M65.24 83.058c1.052.15 12.21 7.678 16.043 10.714 2.87 2.272 5.567 5.292 7.487 8.11 2.496 3.66 7.487 13.854 7.487 13.854s6.927 13.926 4.817 12.683c-5.204-3.064-39.042-25.54-39.042-25.54s1.568-20.057 3.209-19.822z"/>
        <path fill="#992B29" d="M96.257 115.736l-1.07 8.878s6.618 5.198 6.417 3.444c-.457-4.004-5.347-12.322-5.347-12.322z"/>
        <path fill="#BF2F41" d="M97.861 123.236v2.143s-2.35 1.755-3.743 2.143c-1.014.282-2.246-.232-2.756-1.072-.32-.527 0-2.142 0-2.142l4.895-2.68 1.604 1.608z"/>
        <path fill="#AD2738" d="M97.861 123.236v2.143s-2.35 1.755-3.743 2.143c-1.014.282-2.246-.232-2.756-1.072-.32-.527 0-2.142 0-2.142s1.324 1.778 2.22 1.607c1.435-.274 4.279-2.679 4.279-2.679z"/>
        <path fill="#FF445D" d="M11.302 82.522s-6.2 7.294 5.142 10.178c-1.593-3.367-3.2-3.302-5.142-10.178"/>
        <path fill="#626B6E" d="M25.862 77.67a.655.655 0 0 0 .027 1.067c4.877 3.291 31.865 21.463 31.865 21.463s2.562-17.439 1.604-19.821c-1.07-2.663-11.146-6.092-13.369-6.429-2.16-.328-11.626-2.604-20.127 3.72zM40.214 66.45H21.39s-1.92-.272-1.07-1.607c.852-1.335 7.36-8.93 18.717-15 10.258-5.483 16.578-5.893 16.578-5.893s9.164-.95 16.043 0c4.409.61 4.256 1.555 2.139 2.143-2.118.588-12.302 5.683-17.113 8.572-7.202 4.324-13.674 11.458-16.47 11.785z"/>
        <g transform="translate(19.786 43.324)">
            <mask id="d" fill="#fff">
                <use xlink:href="#c"/>
            </mask>
            <path fill="#FFF" fill-opacity=".094" d="M17.647 5.943s40.125-4.035 42.007 5.722c10.702-5.711.582-2.991-.83-8.36C57.489-1.768 38.208-2.68 27.882.204c-4.797 1.339-10.235 5.739-10.235 5.739z" mask="url(#d)"/>
        </g>
        <path fill="#FF445D" d="M42.78 117.343l-2.138.536 64.17 39.038-1.069-2.074-60.962-37.5"/>
        <path fill="#CC3A37" d="M132.62 165.022l1.07-10.179-120.856-78.75s-1.957-2.295-1.604-3.75c-.403 3.03.025 11.25.025 11.25s.074 2.597 1.044 4.286c.511.915 3.744 4.821 3.744 4.821s4.391-1.287 9.09 1.608c4.7 2.893 15.764 11.08 16.578 23.035 2.965 2.38 62.032 38.036 62.032 38.036s-.115-14.416 14.439-7.5c11.269 5.355 14.438 17.143 14.438 17.143z"/>
        <path fill="#510000" d="M11.23 73.95l1.07 2.143V85.2l-1.07-2.678z"/>
        <path fill-rule="nonzero" stroke="#FFF" stroke-opacity=".05" d="M.5.5h199v199H.5z"/>
    </g>
</svg>
