<svg xmlns="http://www.w3.org/2000/svg" width="1086" height="405" viewBox="0 0 1086 405">
    <defs>
        <linearGradient id="a" x1="80.991%" x2="21.001%" y1="-27.546%" y2="63.78%">
            <stop offset="0%" stop-color="#E6E6E6"/>
            <stop offset="78.606%" stop-color="#E6E6E6"/>
            <stop offset="100%" stop-color="#E6E6E6" stop-opacity="0"/>
        </linearGradient>
    </defs>
    <g fill="none" fill-rule="evenodd">
        <path fill="#F1E6BB" d="M876.705 264.028l-41.791-24.129a4.002 4.002 0 0 0-3.996-.002l-33 19.004c-2.71 1.562-2.66 5.49.09 6.982l41.173 22.331a7.999 7.999 0 0 0 7.814-.105l29.71-17.153c2.667-1.539 2.667-5.389 0-6.928M957.213 215.73l-42.463-22.182a4 4 0 0 0-3.96.146l-28.226 17.493c-2.571 1.593-2.512 5.352.106 6.864l37.405 21.596a8 8 0 0 0 8 0l29.285-16.908c2.733-1.577 2.649-5.549-.147-7.009M459.465 355.608l-89.031-51.104a3.997 3.997 0 0 0-3.984 0l-61.896 35.567c-2.674 1.536-2.677 5.392-.007 6.933l86.97 50.182a7.995 7.995 0 0 0 8-.003l59.958-34.642c2.67-1.542 2.664-5.398-.01-6.933M751.842 167.39L711.54 144.49a3.997 3.997 0 0 0-3.976.013l-89.49 51.666c-2.663 1.538-2.668 5.381-.006 6.924l38.259 22.196a7.998 7.998 0 0 0 8.04-.006l87.513-50.96c2.665-1.553 2.645-5.41-.037-6.935"/>
        <path fill="#FBEADB" d="M476.546 166.284L410.236 128l-37.905 21.885 66.31 38.284z"/>
        <path fill="#CCBEB1" d="M438.641 188.284L372.331 150v43.768l66.31 38.285z"/>
        <path fill="#946B81" d="M430.623 197.459L381.331 169v28.955l49.292 28.459z"/>
        <path fill="#D9CABD" d="M476.475 166l-38.144 22.021v43.769l38.144-22.021z"/>
        <path fill="#6E5563" d="M375.331 175.039l49.292 28.459 5.868-6.039L381.2 169z"/>
        <path fill="url(#a)" d="M1189.93 322.559l35.955-20.274c8.118-4.577 8.147-16.257.052-20.875l-98.397-56.139-231.32 133.553a96.994 96.994 0 0 1-96.72.161L603.184 246.512c-9.577-5.487-21.35-5.467-31.198.218C388.317 339.533 251.655 410.623 162 460H0l539.594-270.777a97 97 0 0 1 96.401.022L832.311 301.72a30.995 30.995 0 0 0 30.908-.052L1386 0l-.188 76.158-234.2 135.216 86.218 49.19c24.285 13.855 24.196 48.896-.158 62.626l-23.373 13.18 16.925 9.592c2.691 1.524 2.706 5.397.027 6.943l-87.357 50.437a8 8 0 0 1-8.033-.02l-71.569-41.781c-2.65-1.548-2.642-5.383.017-6.918l88.264-50.968a4 4 0 0 1 3.972-.015l33.384 18.919z" transform="translate(-300)"/>
        <path fill="#FBEADB" d="M353.575 238.164l-63.221-36.5-69.71 40.247 63.22 36.5z"/>
        <path fill="#D9CABD" d="M353.6 238.207l-70.149 40.5v54.656l70.148-40.5z"/>
        <path fill="#CCBEB1" d="M283.864 278.707l-63.22-36.5v54.656l63.22 36.5z"/>
        <path fill="#946B81" d="M248.106 295.013l-18.187-10.5v-14.906l18.187 10.5zM273.451 309.645l-18.187-10.5V284.24l18.187 10.5z"/>
        <path fill="#6E5563" d="M248.106 280.107l-18.187-10.5-3.463 3.962 18.186 10.5zM273.451 294.739l-18.187-10.5-3.464 3.963 18.186 10.5z"/>
        <path fill="#946B81" d="M314.46 280.863l-18.87 10.895v15.385l18.87-10.895zM343.27 263.038l-17.694 10.216v35.278l17.694-10.216z"/>
        <path fill="#992B29" d="M286.026 243.68c-8.448-9.159-12.673-16.415-12.673-21.769 0-8.032 5.674-17.818 12.673-21.859 4.598-2.654 7.484-2.612 11.457.026 1.598 1.061 1.217 4.443 1.217 7.2 0 5.203-2.529 19.133-10.508 37.14-1.198-.336-1.198-.336-2.166-.739"/>
        <path fill="#F04240" d="M288.192 244.418c-8.448-9.157-12.673-16.413-12.673-21.768 0-8.031 5.674-17.818 12.673-21.86 7-4.04 12.674-.805 12.674 7.227 0 5.354-4.225 17.488-12.674 36.4"/>
        <path fill="#D9CABD" d="M540.134 209L495 235.059v28.832l45.134-26.059z"/>
        <path fill="#946B81" d="M540.134 203L495 229.059v6.338l45.134-26.058z"/>
        <path fill="#D9CABD" d="M540 175l-45 26.059v28.832l45.134-26.059z"/>
        <path fill="#946B81" d="M516.028 199L503 206.522v11.747l13.028-7.522zM534.028 188L521 195.521v11.748l13.028-7.523z"/>
        <path fill="#CCBEB1" d="M495.127 234.506L470 220v28.832l25.127 14.507zM495.127 201.506L470 187v28.832l25.127 14.507z"/>
        <path fill="#946B81" d="M495.127 229.507L470 215v5.806l25.127 14.507zM488.28 207.936L478 202v9.27l10.28 5.936z"/>
        <path fill="#FBEADB" d="M470 186.896L495 202l44.979-26.493L514.854 161z"/>
        <path fill="#FBEADB" d="M479 187.289l15.82 9.134 35.143-20.289-15.82-9.134z"/>
        <path fill="#946B81" d="M486.056 238.229L477 233v19.744l9.056 5.228z"/>
        <path fill="#CCBEB1" d="M544.997 238.008l-24.1-13.913v51.85l24.1 13.913z"/>
        <path fill="#D9CABD" d="M569.02 224.094l-24.099 13.914v51.85l24.1-13.913z"/>
        <path fill="#FBEADB" d="M568.945 224.138l-24.099-13.914-23.949 13.827 24.1 13.913z"/>
        <path fill="#946B81" d="M564.823 233.881l-15.489 8.942v3.874l15.489-8.941zM564.823 241.86l-15.489 8.942v3.874l15.489-8.943zM564.823 250.568l-15.489 8.942v3.875l15.489-8.943z"/>
        <path fill="#CF9878" d="M386.682 307.355h-6.516v43.982a3.258 3.258 0 1 0 6.516 0v-43.982z"/>
        <path fill="#679453" d="M381.244 332.853c-1.164 0-2.3-.14-3.4-.4 1.674 1.384 3.632 2.196 5.734 2.196 4.036 0 7.559-2.95 9.5-7.348-3.115 3.447-7.27 5.552-11.834 5.552"/>
        <path fill="#D0DA9E" d="M394.518 288.148c0 8.358-4.967 15.135-11.094 15.135s-11.093-6.777-11.093-15.135c0-8.359 4.966-15.135 11.093-15.135s11.094 6.776 11.094 15.135"/>
        <path fill="#D0DA9E" d="M400.918 312.397c0 11.63-7.832 21.06-17.493 21.06-9.662 0-17.494-9.43-17.494-21.06 0-11.63 7.832-21.058 17.494-21.058 9.66 0 17.493 9.428 17.493 21.058"/>
        <path fill="#94AD88" d="M382.466 299.471c-1.164 0-2.3-.14-3.4-.4 1.674 1.384 3.632 2.196 5.734 2.196 4.036 0 7.559-2.95 9.5-7.349-3.115 3.448-7.27 5.553-11.834 5.553"/>
        <path fill="#CF9878" d="M667.265 158.984h-6.516v43.982a3.257 3.257 0 1 0 6.516 0v-43.982z"/>
        <path fill="#679453" d="M661.827 184.483c-1.164 0-2.3-.14-3.4-.4 1.674 1.383 3.632 2.195 5.734 2.195 4.036 0 7.559-2.95 9.5-7.348-3.115 3.447-7.27 5.553-11.834 5.553"/>
        <path fill="#D0DA9E" d="M675.101 139.777c0 8.359-4.967 15.135-11.094 15.135s-11.093-6.776-11.093-15.135c0-8.358 4.966-15.135 11.093-15.135s11.094 6.777 11.094 15.135"/>
        <path fill="#D0DA9E" d="M681.5 164.027c0 11.63-7.831 21.058-17.492 21.058-9.662 0-17.494-9.428-17.494-21.058 0-11.631 7.832-21.059 17.494-21.059 9.66 0 17.493 9.428 17.493 21.059"/>
        <path fill="#94AD88" d="M663.049 151.101c-1.164 0-2.3-.14-3.4-.4 1.674 1.383 3.632 2.195 5.734 2.195 4.036 0 7.559-2.95 9.5-7.348-3.115 3.447-7.27 5.553-11.834 5.553"/>
        <path fill="#CF9878" d="M709.83 135.597h-6.516v43.981a3.258 3.258 0 1 0 6.516 0v-43.98z"/>
        <path fill="#679453" d="M704.391 161.095c-1.163 0-2.3-.14-3.399-.4 1.674 1.384 3.632 2.196 5.733 2.196 4.037 0 7.56-2.95 9.5-7.349-3.114 3.447-7.27 5.553-11.834 5.553"/>
        <path fill="#D0DA9E" d="M717.666 116.39c0 8.358-4.967 15.134-11.094 15.134s-11.093-6.776-11.093-15.135c0-8.358 4.966-15.134 11.093-15.134s11.094 6.776 11.094 15.134"/>
        <path fill="#D0DA9E" d="M724.066 140.64c0 11.63-7.832 21.057-17.494 21.057-9.66 0-17.493-9.428-17.493-21.058 0-11.63 7.832-21.059 17.493-21.059 9.662 0 17.494 9.43 17.494 21.06"/>
        <path fill="#94AD88" d="M705.614 127.714c-1.164 0-2.301-.14-3.4-.401 1.674 1.384 3.632 2.197 5.733 2.197 4.037 0 7.56-2.951 9.5-7.35-3.114 3.448-7.27 5.554-11.833 5.554"/>
        <path fill="#333" d="M825.836 329.683c-.597-1.244-1.973-1.562-3.575-.637-2.15 1.241-3.893 4.246-3.893 6.713 0 1.806 2.072 3.08 2.072 3.08s2.18 1.228 3.783.303c2.15-1.24 3.892-4.247 3.892-6.714 0-1.806-.935-2.816-2.28-2.745M846.618 337.58c-.597-1.244-1.972-1.562-3.575-.637-2.15 1.242-3.893 4.247-3.893 6.714 0 1.806 2.072 3.079 2.072 3.079s2.18 1.229 3.783.303c2.15-1.241 3.892-4.247 3.892-6.713 0-1.806-.935-2.817-2.28-2.745M874.44 321.589c-.597-1.244-1.973-1.562-3.575-.637-2.15 1.24-3.893 4.246-3.893 6.713 0 1.806 2.072 3.08 2.072 3.08s2.18 1.228 3.783.303c2.15-1.241 3.892-4.247 3.892-6.714 0-1.806-.936-2.816-2.279-2.745"/>
        <path fill="#992B29" d="M883.042 309.064l-20.093-11.512-26.518 15.31 19.604 11.975zM843.162 321.89l-16.945-8.868-10.224 11.49L836 336z"/>
        <path fill="#CC3A37" d="M836.188 335.837l-20.02-11.56v10.74l20.02 11.559zM856 314l-16-9-14 8 17.134 9.05z"/>
        <path fill="#992B29" d="M836.188 344.652l-19.994-11.567v2.079l19.994 11.86z"/>
        <path fill="#CC3A37" d="M883 309l-27 15.755V314l-13 8-7 14v11l47-27z"/>
        <path fill="#333" d="M849.561 339.447c0-2.689-1.899-3.772-4.243-2.42-2.343 1.354-4.243 4.63-4.243 7.319 0 2.69 1.9 3.773 4.243 2.419 2.344-1.352 4.243-4.63 4.243-7.318"/>
        <path fill="#FDEDD3" d="M848.005 340.345c0-1.702-1.203-2.388-2.687-1.53-1.483.855-2.685 2.93-2.685 4.632 0 1.702 1.202 2.387 2.685 1.531 1.484-.857 2.687-2.93 2.687-4.633"/>
        <path fill="#333" d="M877.26 323.455c0-2.688-1.9-3.771-4.244-2.42-2.342 1.354-4.242 4.63-4.242 7.32 0 2.689 1.9 3.772 4.242 2.419 2.345-1.353 4.243-4.63 4.243-7.32"/>
        <path fill="#FDEDD3" d="M875.703 324.354c0-1.702-1.203-2.388-2.687-1.53-1.483.855-2.685 2.93-2.685 4.632 0 1.702 1.202 2.387 2.685 1.531 1.484-.857 2.687-2.93 2.687-4.633"/>
        <path fill="#F9E685" d="M821.418 333.934l-5.147-2.972v-2.749l5.147 2.973zM836.184 342.46l-5.147-2.972v-2.75l5.147 2.974z"/>
        <path fill="#992B29" d="M839.15 334.333l13.498-7.793v-9.046l-8.237 4.756z"/>
        <path fill="#CF9878" d="M849.835 245.376h-6.921v21.453a3.462 3.462 0 0 0 6.92 0v-21.453z"/>
        <path fill="#D0DA9E" d="M828.611 233.039c0 9.616 7.796 17.412 17.413 17.412 9.616 0 17.412-7.796 17.412-17.412 0-9.617-7.796-17.413-17.412-17.413-9.617 0-17.413 7.796-17.413 17.413"/>
        <path fill="#94AD88" d="M846.024 247.522c-8.42 0-15.479-5.809-17.398-13.636.298 9.356 7.97 16.85 17.398 16.85 9.427 0 17.1-7.495 17.397-16.85-1.919 7.827-8.978 13.636-17.397 13.636"/>
        <path fill="#F8FDFF" fill-opacity=".4" d="M846.024 218.79c8.42 0 15.478 5.809 17.397 13.636-.297-9.355-7.97-16.848-17.397-16.848-9.428 0-17.1 7.493-17.398 16.848 1.92-7.827 8.98-13.636 17.398-13.636"/>
        <path fill="#CF9878" d="M927.193 199.561h-6.92v21.454a3.46 3.46 0 1 0 6.92 0v-21.454z"/>
        <path fill="#D0DA9E" d="M905.97 187.224c0 9.616 7.795 17.412 17.411 17.412 9.617 0 17.413-7.796 17.413-17.412 0-9.617-7.796-17.412-17.413-17.412-9.615 0-17.412 7.795-17.412 17.412"/>
        <path fill="#94AD88" d="M923.382 201.708c-8.42 0-15.478-5.808-17.397-13.636.297 9.356 7.97 16.849 17.397 16.849 9.428 0 17.1-7.493 17.398-16.85-1.92 7.828-8.98 13.637-17.398 13.637"/>
        <path fill="#F8FDFF" fill-opacity=".4" d="M923.382 172.976c8.42 0 15.479 5.808 17.398 13.635-.298-9.355-7.97-16.848-17.398-16.848-9.427 0-17.1 7.493-17.397 16.85 1.919-7.829 8.978-13.637 17.397-13.637"/>
        <path fill="#103539" d="M901.47 251.215l-6.99 9.86a1.954 1.954 0 0 0 .615 2.822l13.984 8.072c1.599.923 3.466-.681 2.797-2.4l-6.993-17.933c-.563-1.448-2.514-1.69-3.413-.42"/>
        <path fill="#0A3755" d="M902.487 259.784a1.17 1.17 0 0 0-1.17 1.17v36.548a1.171 1.171 0 0 0 2.34 0v-36.548a1.17 1.17 0 0 0-1.17-1.17"/>
        <path fill="#FBEADB" d="M821.918 188.19l-29.098-16.8-37.954 21.913 29.099 16.8z"/>
        <path fill="#CCBEB1" d="M784.878 210.92l-29.1-16.8v114.083l29.1 16.8z"/>
        <path fill="#D9CABD" d="M822.369 187.944l-38.191 22.05v114.083l38.19-22.05z"/>
        <path fill="#CCBEB1" d="M786.585 190.852l-14.061-8.117v7.771l14.06 8.117z"/>
        <path fill="#D9CABD" d="M804.7 179.75l-18.453 10.655v7.772l18.454-10.655z"/>
        <path fill="#946B81" d="M814.755 214.45l-23.036 13.3v6.262l23.036-13.301zM814.755 228.44l-23.036 13.3V248l23.036-13.3zM814.755 242.91l-23.036 13.3v6.262l23.036-13.3zM814.755 256.986l-23.036 13.3v6.261l23.036-13.3z"/>
        <path fill="#FBEADB" d="M772.396 262.592l-17.56-10.137-22.902 13.222 17.56 10.138z"/>
        <path fill="#CCBEB1" d="M750.044 276.308l-17.56-10.139v68.843l17.56 10.138z"/>
        <path fill="#D9CABD" d="M772.668 262.443l-23.046 13.306v68.842l23.046-13.305z"/>
        <path fill="#CCBEB1" d="M751.074 264.199l-8.484-4.898v4.689l8.484 4.898z"/>
        <path fill="#D9CABD" d="M762.007 257.5l-11.137 6.429v4.69l11.137-6.43zM736.182 287.392l-21.563 12.45v65.335l21.563-12.449z"/>
        <path fill="#FBEADB" d="M736.115 287.431l-21.563-12.449-21.429 12.372 21.563 12.45z"/>
        <path fill="#CCBEB1" d="M714.619 299.842l-21.563-12.45v65.337l21.563 12.449z"/>
        <path fill="#D9CABD" d="M709.572 311.504l-4.729 2.73v51.007l4.729-2.73z"/>
        <path fill="#CCBEB1" d="M704.843 314.015l-16.834-9.72v51.008l16.834 9.72z"/>
        <path fill="#FBEADB" d="M709.543 311.52l-16.835-9.72-4.7 2.713 16.836 9.72z"/>
        <path fill="#D9CABD" d="M722.85 281.095l-8.31 4.8v7.974l8.31-4.797z"/>
        <path fill="#CCBEB1" d="M714.6 285.894l-8.312-4.799v7.977l8.312 4.798z"/>
        <path fill="#FBEADB" d="M725.031 278.16l-10.426-6.021-10.361 5.983 10.426 6.019z"/>
        <path fill="#CCB299" d="M714.6 284.16l-10.427-6.02v1.735l10.427 6.019z"/>
        <path fill="#DEC0A6" d="M725.064 278.14l-10.427 6.021v1.733l10.427-6.02z"/>
        <path fill="#D9CABD" d="M554.153 217.237l-8.31 4.798v7.976l8.31-4.797z"/>
        <path fill="#CCBEB1" d="M545.902 222.035l-8.31-4.798v7.977l8.31 4.798z"/>
        <path fill="#FBEADB" d="M556.334 214.301l-10.427-6.02-10.361 5.982 10.427 6.02z"/>
        <path fill="#CCB299" d="M545.902 220.301l-10.426-6.02v1.735l10.426 6.02z"/>
        <path fill="#DEC0A6" d="M556.366 214.282l-10.426 6.02v1.734l10.426-6.02z"/>
        <path fill="#946B81" d="M732.063 296.146l-13.325 7.694v3.615l13.325-7.695zM732.063 303.379l-13.325 7.693v3.615l13.325-7.694zM732.063 311.632l-13.325 7.692v3.615l13.325-7.694zM732.063 319.46l-13.325 7.693v3.615l13.325-7.694z"/>
        <path fill="#992B29" d="M713.476 277.935c-8.002-8.673-12.003-15.546-12.003-20.617 0-7.607 5.374-16.876 12.003-20.703 4.354-2.514 7.088-2.474 10.852.025 1.512 1.005 1.151 4.208 1.151 6.818 0 4.928-2.396 18.123-9.95 35.177-1.137-.317-1.137-.317-2.053-.7"/>
        <path fill="#F04240" d="M715.528 278.635c-8.002-8.674-12.003-15.546-12.003-20.617 0-7.607 5.374-16.876 12.003-20.703 6.63-3.827 12.003-.764 12.003 6.842 0 5.072-4 16.564-12.003 34.478"/>
        <path fill="#FFF" d="M291.757 220.237l-6.634 3.83v-1.668l2.326-4.223c.293-.531.559-1.018.798-1.461.239-.443.445-.859.615-1.248.172-.388.305-.76.4-1.115.095-.354.14-.705.14-1.052 0-.382-.1-.622-.3-.718-.2-.097-.47-.047-.807.148-.356.205-.7.504-1.028.896-.33.391-.674.878-1.035 1.459l-1.136-.889c.203-.329.415-.654.636-.976.22-.321.463-.633.73-.937.266-.304.559-.593.879-.869a7.02 7.02 0 0 1 1.075-.756c.474-.274.899-.444 1.276-.512.376-.066.697-.039.962.084.267.123.47.341.613.653.14.31.213.711.213 1.203 0 .445-.068.91-.203 1.393-.135.485-.321.99-.554 1.516a22.595 22.595 0 0 1-.816 1.635 68.739 68.739 0 0 1-.99 1.747l-1.19 2.06v.11l4.03-2.328v2.018z"/>
        <path fill="#E6E6E6" d="M795.125 393.41l-15.223-9.958-17.531 9.893 16.502 9.527z"/>
        <path fill="#D9CABD" d="M789.23 383.452l-10.575 6.105v10.15l10.575-6.106z"/>
        <path fill="#CCBEB1" d="M778.731 389.557l-10.576-6.105v10.15l10.576 6.105z"/>
        <path fill="#FBEADB" d="M792.006 380.408l-13.27-7.66-13.183 7.612 13.267 7.66z"/>
        <path fill="#CCB299" d="M778.731 388.045l-13.269-7.661v2.207l13.27 7.66z"/>
        <path fill="#DEC0A6" d="M792.047 380.384l-13.268 7.66v2.207l13.268-7.66z"/>
        <path fill="#D9CABD" d="M789.23 369.981l-10.575 6.106v10.15l10.575-6.106z"/>
        <path fill="#CCBEB1" d="M778.731 376.088l-10.576-6.106v10.15l10.576 6.105z"/>
        <path fill="#FBEADB" d="M792.006 366.245l-13.27-7.66-13.183 7.612 13.267 7.66z"/>
        <path fill="#CCB299" d="M778.731 373.882l-13.269-7.66v2.206l13.27 7.66z"/>
        <path fill="#DEC0A6" d="M792.047 366.221l-13.268 7.66v2.207l13.268-7.66z"/>
        <path fill="#FBEADB" d="M676.626 322.003c-9.813-8.818-26.467-11.438-26.467-11.438l-.368 74.529 39.637-9.215s7.676-35.471-12.802-53.876"/>
        <path fill="#D9CABD" d="M679.917 324.487c-7.501-6.741-16.504-6.428-16.504-6.428v74.899l27.004-15.591s5.153-38.811-10.5-52.88"/>
        <path fill="#CCBEB1" d="M649.79 310.195l13.623 7.864v74.899l-13.622-7.865z"/>
        <path fill="#946B81" d="M675.332 337.88l-11.92 6.882v-5.21l11.92-6.882zM675.332 348.627l-11.92 6.882v-5.21l11.92-6.882zM675.332 359.374l-11.92 6.88v-5.21l11.92-6.881z"/>
        <path fill="#946B81" d="M663.413 344.611l-6.811-3.933v-5.21l6.81 3.933zM663.413 355.683l-6.811-3.933v-5.21l6.81 3.932zM663.413 366.103l-6.811-3.932v-5.21l6.81 3.932z"/>
        <path fill="#FFF" d="M717.36 259.077l-2.208 1.274v-6.931a34.53 34.53 0 0 1 .02-1.146 150.876 150.876 0 0 0 .039-1.271 8.282 8.282 0 0 1-.123.217 51.249 51.249 0 0 1-.415.698 7.725 7.725 0 0 1-.22.348l-1.2 1.799-1.07-.905 3.362-5.014 1.814-1.048v11.979z"/>
        <path fill="#9A8585" d="M637.69 285.328c4.398-2.54 7.968-.355 7.968 4.874 0 5.229-3.57 11.535-7.967 14.074-4.397 2.538-7.967.354-7.967-4.875 0-5.228 3.57-11.535 7.967-14.073z"/>
        <path fill="#BD9B9B" d="M637.547 288.659c2.828-1.633 5.124-.273 5.124 3.034 0 3.308-2.296 7.32-5.124 8.952-2.828 1.633-5.124.273-5.124-3.034 0-3.308 2.296-7.32 5.124-8.952z"/>
        <path fill="#FDEDD3" d="M637.416 290.995c1.814-1.047 3.287-.207 3.287 1.876 0 2.083-1.473 4.624-3.287 5.672-1.814 1.047-3.287.206-3.287-1.877 0-2.082 1.473-4.624 3.287-5.671z"/>
        <path fill="#7A6972" d="M632.592 297.572l-2.853-1.182s-5.137-.338-6.59 6.561c-.997 4.733 3.938 5.743 3.938 5.743s-2.08-3.997.384-7.412c2.355-3.264 4.301-3.593 5.12-3.71z"/>
        <path fill="#B79898" d="M630.35 294.975l.272 1.79s-19.055 22.731-27.371 21.766c-3.98.16-9.231-4.202-3.872-24.025 1.463-1.811 5.691-3.236 5.691-3.236l25.28 3.705z"/>
        <path fill="#FDEDD3" d="M603.087 299.621s.214.695-.13 1.03c-.344.336-4.354 2.951-4.965 3.2-.133-.841.143-1.396.143-1.396s4.682-2.82 4.952-2.834z"/>
        <path fill="#F6C5A7" d="M602.84 299.653s-3.817 2.612-5.066 3.082c-.737-1.214-.18-2.76.172-3.43.352-.67 1.005-.717 1.964-.707.96.01 2.716.685 2.93 1.055"/>
        <path fill="#CC3A37" d="M638.105 267.759s5.027 1.289 8.113 8.289c-3.147 4.673-14.538 15.539-26.84 16.626-5.465.44-8.417.537-11.146-4.68-2.729-5.218 4.496-5.267 5.358-5.766.862-.5 15.535-17.418 24.515-14.469z"/>
        <path fill="#C77D71" d="M603.001 297.995s.172 1.247-.038 1.643c-.414.504-2.449 1.576-2.449 1.576s-.118-1.823.544-2.434c.662-.612 1.943-.785 1.943-.785"/>
        <path fill="#DC7163" d="M647.925 278.281s-3.026-7.92-15.573-1.313-13.659 22.918-13.659 22.918 1.418.462 2.806.25c.253-2.08 2.262-15.169 12.426-20.42 10.163-5.253 14-1.435 14-1.435z"/>
        <path fill="#992B29" d="M618.763 300.136s.271 2.357.134 2.793c-.137.436.007.63-1.134.76-1.141.13-3.134.49-5.47-.536-2.336-1.027-8.167-2.788-8.369-8.094 1.135-1.682 1.626-1.751 1.626-1.751s4.71 7.372 9.825 7.027c2.606-.196 3.388-.2 3.388-.2z"/>
        <path fill="#EE5B57" d="M618.695 299.994s-6.137 1.156-9.046-.924c-2.908-2.08-1.588-7.776-.617-8.918.97-1.14 1.167 4.757 11.435 1.901-1.176 3.332-1.364 4.357-1.772 7.94z"/>
        <path fill="#ECE2CF" d="M639.244 267.743s.238 2.16-3.33 3.79c-3.567 1.63-2.511.591-2.511.591l.487-1.513s2.135.057 3.517-1.81c1.38-1.867 1.837-1.058 1.837-1.058z"/>
        <path fill="#ECC7A8" d="M651.271 274.033s1.453-.713 2.774 1.41c.301 1.655-.182 2.03-.454 2.27-.281.247.348-1.415-.593-2.291a14.29 14.29 0 0 0-1.727-1.39z"/>
        <path fill="#C5A2A1" d="M640.118 267.553s4.294 1.496 6.903 6.725c-.302 1.071-.894 2.063-.894 2.063s-1.423-3.947-6.847-7.923c.226-.479.838-.865.838-.865z"/>
        <path fill="#C5A2A1" d="M649.388 275.705l-1.12 1.098-1.867-1.312.606-1.082z"/>
        <path fill="#7A6972" d="M651.216 273.987s-3 1.045-3.015 3.661c.027 1.186 1.452 1.418 2.554 1.242 1.101-.176 2.574-.846 2.884-1.242.068-.813.337-2.311-2.423-3.661z"/>
        <path fill="#796B6B" d="M574.507 337.39s-4.561-.094-7.496-4.222c-1.607-3.224-1.51-9.128 1.843-13.663 3.775-5.105 8.252-5.646 8.252-5.646l6.077 1.144s-9.015 3.643-10.563 9.597c-1.549 5.955-1.573 9.795 1.887 12.79z"/>
        <path fill="#F54070" d="M641.785 266.308s5.737 1.073 5.645 6.43c-.07.801-.514 1.756-.514 1.756s-2.142-4.714-6.608-6.789c1.044-1.21 1.477-1.397 1.477-1.397z"/>
        <path fill="#ECE2CF" d="M643.778 265.404l-1.247 5.135-.746-.71 1.202-3.909z"/>
        <path fill="#A0BAC0" d="M577.16 321.175s5.3-5.166 7.782-.264c1.25 2.478-.37 7.916-2.806 10.37-2.435 2.452-6.778 4.718-8.31.745-2.03-5.27 3.334-10.85 3.334-10.85z"/>
        <path fill="#9A8585" d="M579.087 316.337c4.783-2.761 8.666-.544 8.666 4.947 0 5.492-3.883 12.193-8.666 14.954-4.782 2.761-8.665.544-8.665-4.947 0-5.492 3.883-12.192 8.665-14.954z"/>
        <path fill="#FDEDD3" d="M579.51 321.391c2.243-1.295 4.064-.255 4.064 2.32 0 2.575-1.821 5.717-4.064 7.012-2.243 1.294-4.063.255-4.063-2.32 0-2.575 1.82-5.717 4.063-7.012z"/>
        <path fill="#7A6972" d="M583.063 314.399s-1.115 3.009-2.261 6.01c-1.197 3.138-2.361 6.216-1.466 6.383 1.09.873 4.34-7.93 4.34-7.93l1.874-4.06-2.487-.403"/>
        <path fill="#615656" d="M608.434 270.357l-10.413 6.658s-1.197.843-2.103 2.448c-.905 1.606.804 18.395.804 18.395s1.36 1.871 3.334 1.692c1.974-.178 3.242-1.877 3.242-1.877l1.254-9.468 8.403-12.317-4.521-5.531z"/>
        <path fill="#B0ADAB" d="M585.773 314.96l-4.929 10.647s-.707 1.522-1.393 1.207c-.644-.295.056-1.864.056-1.864l4.1-10.317 2.166.327z"/>
        <path fill="#E0A08B" d="M597.325 276.389l3.97 2.338-1.403.829-3.03-1.934z"/>
        <path fill="#E0A08B" d="M599.203 270.679s-2.34 9.035-2.679 10.176c-3.38-.755-6.568-2.832-6.568-2.832s1.898-7.862 2.358-8.591c.46-.73 2.306-.353 3.566-.17 1.26.181 3.323 1.417 3.323 1.417M628.068 299.573c.836-.991 5-4.353 5.862.196 1.023 5.394-3.136 9.272-4.96 9.43-1.823.157-4.1-1.165-2.98-5.81.274-1.13 1.185-2.758 2.078-3.816z"/>
        <path fill="#AA7171" d="M587.24 275.501s10.261 1.718 12.442 9.573c1.851 6.668.01 10.046-.628 12.764-.638 2.719-3.498 18.214 3.22 20.54-5.004.799-6.898-5.099-5.727-12.39 1.17-7.291 3.917-16.449 1.763-19.699s-7.06-9.559-10.38-9.895c-.838-.246-1.402-.395-.69-.893z"/>
        <path fill="#F04240" d="M592.676 278.34s-5.381-4.773-9.216-.725c-3.835 4.048-7.245 13.013-6.337 21.602.908 8.589 10.181 23.309 24.672 22.926 10.447-.275 20.417-13.481 25.731-21.517 2.462-3.722 5.176-3.07 5.176-3.07l-2.11-.908s-1.202-.263-3.28 2.192c-4.551 5.374-14.565 15.498-18.968 17.805-6.04 3.165-12.318 3.134-11.738-7.958.58-11.091 3.56-15.597 2.315-21.235-1.246-5.638-6.245-9.111-6.245-9.111z"/>
        <path fill="#CC3A37" d="M581.266 301.381l4.516 1.622s1.153.348 1.6 2.33c.446 1.98 3.773 10.975 3.922 12.214-.291.536-.606.109-.606.109s-3.184-2.846-7.458-2.22c-4.274.626-9.193 2.174-12.79.748-3.598-1.427-2.794-4.6.95-7.883 3.743-3.284 5.575-3.76 6.958-4.44 1.083-.559 1.386-1.07 2.186-2.295.382-.469.722-.185.722-.185z"/>
        <path fill="#F6C5A7" d="M584.96 305.314s1.842.854 1.546 2.143c-.316 1.381-1.097 1.858-3.23 2.823-2.132.965-3.405 1.404-4.73 2.659-1.169 1.107-1.609 2.123-2.314 1.715-.704-.407-.327-3.473 1.382-4.908 1.71-1.435 1.85-.81 4-2.394 1.836-1.353 1.422-1.498 2.232-2.06.363-.253 1.114.022 1.114.022" opacity=".395"/>
        <path fill="#CC3A37" d="M587.419 275.433s7.943.99 8.228 4.33c-1.704 2.984-6.447 12.207-8.382 20.839-.255.98-.848 1.842-1.557 1.739-.709-.103-4.33-1.536-4.33-1.536s-1.159.077-1.122-3.812c.037-3.89.088-12.194 5.552-20.355.68-1.02 1.61-1.205 1.61-1.205z"/>
        <path fill="#B0ADAB" d="M583.052 281.287s1.639-.974 4.004-.513c2.366.46 2.614 4.042 1.967 5.686-.364.923-2.355 2.841-5.101 1.657-2.747-1.185-.87-6.83-.87-6.83z"/>
        <path fill="#F9E685" d="M584.533 281.153c.241.015 3.545.234 3.235 4.095-.157 1.961-2.035 2.731-2.992 2.776-1.471.069-3.6-1.244-3.368-3.748.201-2.182 2.25-3.178 3.125-3.123z"/>
        <path fill="#E0A08B" d="M599.787 279.321s2.889-1.898 4.367-.034c.309 1.578-.686 2.893-2.325 3.599-.575.115-2.042-3.565-2.042-3.565zM587.72 269.955s-2.052-1.633-4.461.346c-1.403 1.182-.995 3.58.54 3.614 1.53.035 2.59-.354 3.242-1.187.652-.833.856-1.575.68-2.773z"/>
        <path fill="#F5DC5F" d="M583.795 269.978s2.3.955 1.952 3.812c-1.123.357-2.854.504-3.343-.782-.49-1.286.257-2.867 1.391-3.03zM599.799 279.323s2.5-.08 1.924 3.599c-1.005.17-2.822.19-2.981-1.29-.19-1.75 1.057-2.309 1.057-2.309z"/>
        <path fill="#E0A08B" d="M591.257 273.469l-3.78-2.428s-1.259-.448-1.067 1.03c.6.544 4.417 2.713 4.417 2.713l.43-1.315"/>
        <path fill="#D3E2E6" d="M583.495 266.389s-1.171.203-.504.913c.167.154.527.158.65-.263.178-.164.66-.323 1.552.182.892.504 1.297.22 1.401.134.104-.086-.154-.317-.154-.317s-.53.134-1.653-.465c-.532-.23-1.292-.184-1.292-.184z"/>
        <path fill="#796B6B" d="M587.714 265.488l-2.255-1.295s-.957.154-.818 1.512c.955.548 2.338 1.4 2.338 1.4l.735-1.617z"/>
        <path fill="#E9C5AD" d="M606.738 253.78s.181 3.676-.252 4.438c-.434.762-2.069 3.304-6.821 5.106-4.753 1.802-5.565 2.04-5.565 2.04s-.3 1.92-.745 2.28c-.446.36-3.559 2.449-4.164 2.321-.605-.128-.456-.596-.059-1.065s2.146-.374 1.87-1.825c-.05-.258-1.004-.197-1.286.074-.282.272-1.491 2.215-2.337 2.196-1.37-.032-1.769-3.424-.956-4.536.813-1.112 5.833-2.138 5.833-2.138s9.126-5.959 9.725-6.713c.598-.755 1.058-2.044 1.145-2.776 1.227.012 3.612.597 3.612.597z"/>
        <path fill="#7A6972" d="M596.164 269.092c1.02.267 3.403 1.264 2.9 1.898-.807 1.015-7.684-.605-6.629-1.798.604-.682 2.699-.37 3.729-.1z"/>
        <path fill="#B0ADAB" d="M584.947 260.269l5.13 6.68-.354.277-5.046-6.752z"/>
        <path fill="#333" d="M590.344 266.808s1.041-.207.747 1.126c-.251.7-1.324 1.652-1.953.892-.629-.76.528-1.904 1.206-2.018z"/>
        <path fill="#B0ADAB" d="M590.549 267.398s1.972 1.334 1.275 4.018c-.708 2.726.526 3.188.921 3.362.649.284 1.908.55 3.62-1.702 1.666-2.194 4.236-1.092 4.764-.713-.39.572-.577 1.13-.524 1.562-.741-.359-1.82-1.67-3.275.056-1.454 1.726-2.769 3.042-5.452 1.896s-1.11-4.337-1.2-5.67c-.088-1.333-.54-1.38-.861-1.768-.073-.32-.124-.839.732-1.04z"/>
        <path fill="#333" d="M613.937 284.01s5.94 1.346 12.053-3.235c6.113-4.582 8.48-8.788 8.579-11.497-1.52-1.007-3.337-2.045-3.337-2.045s-3.739 12.283-11.966 13.417c-1.528.343-3.14 1.604-3.14 1.604l-2.19 1.756z"/>
        <path fill="#CC3A37" d="M632.313 294.636s3.82 2.165 8.43-.626c4.61-2.79 9.1-6.518 9.1-6.518s-1.288-3.892-3.41-3.234c-2.122.659-14.327 10.34-14.12 10.378"/>
        <path fill="#7A6972" d="M628.03 263.963s5.368 2.469 2.906 7.48c-2.462 5.01-7.628 9.793-13.118 9.687-5.489-.105 3.349-11.558 3.349-11.558s2.857-6.73 6.863-5.61z"/>
        <path fill="#FDEDD3" d="M614.707 307.031s.359 1.241-.718 1.898c-1.077.657-5.25 2.778-6.814 3.519-1.2.568-5.007 2.07-6.918-.17-.143-.497-.256-.924.072-1.126.574.501 2.251 1.352 4.053 1.036 1.802-.315 10.29-5.14 10.325-5.157z"/>
        <path fill="#992B29" d="M616.895 258.24l19.073 11.97.116-22.563-19.128-10.855z"/>
        <path fill="#F04240" d="M617 236.5l26.079-14.824 18.907 10.907-26.082 15.02zM635.913 270.274l25.62-14.878.175-22.61-25.723 14.802z"/>
        <path fill="#CC3A37" d="M661.918 232.5v5l-26.01 15.38.017-5.377z"/>
        <path fill="#CC3A37" d="M617 236.5v5l18.952 11.099-.043-5.09z"/>
        <path fill="#F6C5A7" d="M614.032 305.303l.227 2.035s-5.441 3.714-9.332 4.941c-3.787 1.195-5.466-1.797-3.26-3.267 2.204-1.47 4.053-2.51 4.782-4.023.73-1.513 7.583.314 7.583.314z"/>
        <path fill="#C77D71" d="M600.924 309.427s2.578.379 4.172 2.703c-1.485.515-2.903.7-4.633-.22-.725-.386-.377-1.821.461-2.483zM613.918 304.965s-2.652.45-2.575 4.161c1.176-.511 2.706-1.31 3.193-1.97-.189-2.232-.725-2.207-.618-2.19"/>
        <path fill="#6E6262" d="M626.434 272.082s.826 2.33-3.632 5.79c-4.457 3.459-8.908 6.296-10.166 8.776-1.257 2.48.624 10.367.975 13.879.352 3.511 1.329 5.049-.365 5.608-1.694.56-5.453.9-7.014-.613.108-1.184.375-1.428.184-3.247-.19-1.818-1.741-11.58-2.176-13.853-.436-2.273-1.977-3.423 6.193-11.83 8.17-8.405 16.002-4.51 16.002-4.51z"/>
        <path fill="#333" d="M608.84 239.722s-3.63-.95-4.484 3.674c-.852 4.625-1.472 9.665-1.472 9.665s1.167 1.268 3.543 1.165c.239-2.874 2.412-14.504 2.412-14.504z"/>
        <path fill="#FF6944" d="M614.518 239.483s-3.17-1.412-5.349-.626c-2.178.787-4.182 1.982-3.79 7.884.39 5.901 2.094 25.17 2.55 26.088.6.932 6.347 5.282 11.344 4.292 4.997-.99 8.042-3.41 8.077-5.557.036-2.147-1.333-11.718-1.74-17.929-.409-6.21 1.117-9.115-6.941-12.708-3.194-1.18-4.15-1.444-4.15-1.444z"/>
        <path fill="#796B6B" d="M602.824 272.821l5.23 2.866s-.92.148-.914 1.57c-.93-.42-5.3-2.605-5.3-2.605s-.136-1.86.984-1.831z"/>
        <path fill="#E9C5AD" d="M618.734 257.702s3.41 1.06 5.813-.468c.103 1.492-.079 5.602-.597 6.85-.518 1.247-2.652 3.392-4.26 4.32-1.607.929-10.666 5.613-10.666 5.613s-2.581 2.711-4.066 2.78c-1.485.068-3.042-.606-2.959-1.585.084-.978.145-2.023 2.63-3.161 2.486-1.139 9.196-6.208 10.603-7.254 1.407-1.046 3.143-2.173 3.23-3.208.085-1.035.272-3.887.272-3.887z"/>
        <path fill="#333" d="M621.463 244.82s1.714-1.214 3.17.775c1.454 1.99 2.068 11.054 2.068 11.054s-3.541 2.572-6.286 1.985c-2.744-.587-2.103-1.402-2.028-4.783.076-3.38.134-7.1 3.076-9.03"/>
        <path fill="#E9C5AD" d="M616.404 234.121s-.868 4.531 1.07 5.89c1.94 1.358 2.243 1.328 2.243 1.328s-1.685.825-4.417 4.121c-2.09 2.523-5.089.625-5.292-.778-.324-2.246.04-3.341.05-4.344.008-1.003 6.346-6.217 6.346-6.217z"/>
        <path fill="#FBBE9F" d="M603.96 232.706s1.49 6.433 3.51 8.316c1.604 1.497 2.842 1.052 3.792.929 1.921-.25 3.584-2.726 4.272-3.959.67-1.202.052-3.923.052-3.923l-2.773-5.105-8.852 3.742z"/>
        <path fill="#323232" d="M607.059 237.571l.095.816c-1.092.828-1.762.995-2.368.9-.605-.097-1.04-.693-1.09-1.12-.05-.426.092-.713.422-.661.22.035.356.269.407.701-.042-.128-.105-.198-.187-.211-.124-.02-.178.1-.167.192.011.093.073.394.555.47.441.07.824-.816 1-1.043.176-.227.37-.524.757-.463.257.041.449.18.576.42zm0 0c.075-.206.24-.29.498-.248.385.06.659.432.896.724s.845 1.335 1.286 1.405c.482.076.475-.216.464-.309-.01-.093-.095-.233-.219-.253-.082-.013-.13.04-.143.16-.051-.433.034-.632.254-.597.33.052.547.396.597.822.05.427-.26.906-.865.81-.606-.096-1.341-.486-2.673-1.698l-.095-.816zM609.856 231.539s1.548.218 1.837 1.934c.288 1.717 1.427 1.742 1.723 1.74-.086-.6-.365-1.745-.299-2.657.066-.912-.922-2.514-1.495-2.241-.573.274-1.26.721-1.766 1.224z"/>
        <path fill="#CC374A" d="M612.578 230.604s-5.232 2.981-10.144 2.632c-2.183-.119-.985-1.987-.193-2.411 1.199.019 10.337-.221 10.337-.221"/>
        <path fill="#F04240" d="M611.361 230.9s-8.54.467-9.128.062c-.194-.868-.458-4.987 3.06-8.083 3.516-3.096 7.92-1.561 9.107-1.005 1.186.557 4.794 3.369 4.477 7.259-.317 3.891-2.252 6.666-3.818 7.089-.81.243-2.068-3.353-2.26-4.21-.252-1.124-.948-1.101-1.438-1.112z"/>
        <path fill="#B0ADAB" d="M600.844 269.355l-2.477 1.532s-.43.188-.37 1.447c.237.054.365-.187.365-.187s-.106-.707.289-1.062c.486-.437 2.309-1.248 2.309-1.248l-.116-.482z"/>
        <path fill="#B0ADAB" d="M602.603 265.905s2.878 1.117 2.63 4.476c-.126 1.707-1.668 1.647-2.022 1.613-.891-.087-2.857-1.419-2.765-4.098.084-2.444 2.157-1.99 2.157-1.99z"/>
        <path fill="#F04240" d="M647.874 278.168s2.305 2.905 1.408 3.993c-.898 1.087-6.711 4.098-12.58 8.923-5.87 4.825-8.508 5.642-9.423 6.543-.915.9-2.329 2.842-5.962 2.492.393-2.174 1.351-14.25 12.72-20.46 9.612-5.253 13.837-1.49 13.837-1.49z"/>
        <path fill="#FDEDD3" d="M628.727 300.457c.745-.876 3.711-3.41 4.345.228.592 3.395-2.489 6.97-3.876 7.09-1.386.12-3.113-.728-2.134-4.39.204-.761.847-1.967 1.665-2.928z"/>
        <path fill="#333" d="M603.182 272.669l-1.215-.711s-1.579.25-1.373 2.222c.825.578 1.292.703 1.292.703s-.22-1.535 1.296-2.214z"/>
        <path fill="#B0ADAB" d="M583.57 256.689s2.574.763 2.538 4.45c-.007.756-.858 1.857-2.383 1.353-.884-.292-2.703-1.88-2.62-3.83.108-2.578 2.464-1.973 2.464-1.973z"/>
    </g>
</svg>
