<svg xmlns="http://www.w3.org/2000/svg" width="156" height="28" viewBox="0 0 156 28">
    <g fill="none" fill-rule="evenodd">
        <path fill="#333332" d="M66.972 22.75l2.264-16.625h-4.852l-3.111 6.315c-.243.505-.498 1.05-.765 1.634a58.285 58.285 0 0 0-.785 1.809 36.261 36.261 0 0 0-.715 1.864h-.1a53.062 53.062 0 0 0-.12-2.764l-.177-2.542-.523-6.316h-4.803L49.079 22.75h3.285l1.667-6.857c.142-.606.29-1.271.445-1.995.154-.723.312-1.468.47-2.235.161-.767.32-1.52.479-2.257h.05c.033.743.069 1.484.107 2.224.039.74.08 1.458.124 2.154.045.696.092 1.349.142 1.96l.598 6.735h2.787l3.434-6.805a84.03 84.03 0 0 0 .952-1.96c.328-.694.654-1.406.981-2.135.328-.73.645-1.455.954-2.173h.074c-.236 1.204-.448 2.36-.635 3.467a169.556 169.556 0 0 0-.485 3.023l-1.02 6.854h3.484zM72.868 22.75l.859-4.46a9.9 9.9 0 0 1 .468-1.674c.201-.524.455-.987.762-1.39.308-.402.68-.719 1.113-.948.434-.23.94-.347 1.52-.351.101 0 .2 0 .3.003.097.003.19.01.28.021l.706-3.426a3.927 3.927 0 0 0-.34-.022c-.115-.003-.227-.003-.341-.003a3.74 3.74 0 0 0-1.582.35c-.489.23-.933.549-1.329.955-.398.407-.74.878-1.027 1.412h-.076c.037-.415.076-.826.114-1.233l.113-1.215h-3.153c-.042.35-.088.787-.14 1.312a64.2 64.2 0 0 1-.2 1.705 29.527 29.527 0 0 1-.292 1.834l-1.387 7.13h3.632z"/>
        <path fill="#F04240" d="M78 21.602c.258.195.609.38 1.047.553.44.173.963.315 1.57.425.605.11 1.287.166 2.046.17a9.21 9.21 0 0 0 2.561-.344 6.432 6.432 0 0 0 2.105-1.026 4.808 4.808 0 0 0 1.426-1.698c.343-.678.518-1.465.524-2.362a3.789 3.789 0 0 0-.399-1.726 4.616 4.616 0 0 0-1.118-1.396 8.77 8.77 0 0 0-1.72-1.136 18.657 18.657 0 0 1-1.224-.722 3.565 3.565 0 0 1-.834-.716 1.32 1.32 0 0 1-.307-.834c0-.3.094-.578.278-.834.187-.256.462-.463.827-.621.365-.158.817-.24 1.357-.244.454-.004.877.034 1.272.112s.743.174 1.047.287c.304.113.545.219.724.319l1.088-2.87c-.231-.131-.52-.258-.867-.382a7.367 7.367 0 0 0-1.254-.306 10.958 10.958 0 0 0-1.72-.126 8.5 8.5 0 0 0-2.501.361 6.367 6.367 0 0 0-2.042 1.039 4.86 4.86 0 0 0-1.377 1.648c-.331.645-.499 1.375-.504 2.19.01.699.173 1.312.49 1.839.317.528.731.99 1.243 1.387.51.397 1.06.749 1.65 1.056.497.252.909.495 1.233.728.325.233.567.473.725.722.16.249.238.523.237.823-.007.423-.13.774-.368 1.054-.24.279-.554.489-.944.628-.39.138-.813.208-1.27.208a7.763 7.763 0 0 1-2.12-.299 7.3 7.3 0 0 1-1.722-.73L78 21.602zM93.856 28l1.003-5.19h.05c.219.13.527.246.926.345.396.1.85.15 1.357.156 1.071-.01 2.04-.235 2.91-.677a6.917 6.917 0 0 0 2.24-1.81 8.428 8.428 0 0 0 1.44-2.61 9.47 9.47 0 0 0 .51-3.076c0-.632-.08-1.226-.24-1.783a4.467 4.467 0 0 0-.732-1.476 3.41 3.41 0 0 0-1.227-1.007c-.493-.244-1.073-.368-1.736-.372a4.683 4.683 0 0 0-2.15.529c-.684.35-1.282.86-1.793 1.526h-.05l.226-1.78h-3.236a91.336 91.336 0 0 1-.449 3.142 63.449 63.449 0 0 1-.278 1.597L90.27 28h3.586zm2.006-10.654c.155-.807.387-1.505.694-2.092.307-.588.665-1.041 1.073-1.362.408-.32.84-.481 1.296-.485.392.007.703.107.935.303.233.195.4.445.5.749.101.304.15.622.147.955a6.663 6.663 0 0 1-.265 1.823 6.605 6.605 0 0 1-.73 1.664 4.242 4.242 0 0 1-1.091 1.212 2.32 2.32 0 0 1-1.354.469 2.68 2.68 0 0 1-.94-.16 2.138 2.138 0 0 1-.716-.442l.451-2.634zM114.784 19.339a7.786 7.786 0 0 1-1.584.543 8.315 8.315 0 0 1-1.847.2c-.528 0-.994-.076-1.393-.23a2.225 2.225 0 0 1-.962-.681 1.953 1.953 0 0 1-.28-.6 2.284 2.284 0 0 1-.094-.6c1.642.044 3.056-.058 4.24-.307 1.183-.249 2.093-.672 2.73-1.268.638-.596.96-1.392.968-2.389-.007-.732-.192-1.358-.553-1.88-.362-.523-.862-.924-1.5-1.204-.637-.28-1.372-.42-2.204-.423-.89.005-1.703.144-2.444.416a6.76 6.76 0 0 0-1.983 1.123 7.199 7.199 0 0 0-1.473 1.647 7.64 7.64 0 0 0-.92 1.983 7.44 7.44 0 0 0-.316 2.134c0 1.021.199 1.9.597 2.638.397.737.99 1.305 1.777 1.704.787.399 1.764.6 2.933.605.456.001.944-.026 1.466-.082a11.463 11.463 0 0 0 1.576-.285 8.083 8.083 0 0 0 1.517-.546l-.251-2.498zm-1.604-5.308c0 .524-.35.895-1.05 1.115-.702.22-1.754.322-3.156.304.084-.378.245-.752.486-1.122.24-.37.558-.676.956-.923.4-.247.878-.374 1.437-.384.417.005.741.098.974.28.232.181.35.425.353.73zM127.929 19.339a7.764 7.764 0 0 1-1.584.543 8.308 8.308 0 0 1-1.847.2c-.528 0-.993-.076-1.393-.23-.4-.154-.72-.38-.96-.681a1.905 1.905 0 0 1-.282-.6 2.245 2.245 0 0 1-.094-.6c1.643.044 3.057-.058 4.24-.307 1.183-.249 2.094-.672 2.732-1.268.637-.596.96-1.392.967-2.389-.007-.732-.192-1.358-.554-1.88-.361-.523-.86-.924-1.498-1.204-.638-.28-1.373-.42-2.205-.423-.89.005-1.704.144-2.444.416a6.76 6.76 0 0 0-1.983 1.123 7.229 7.229 0 0 0-1.474 1.647 7.676 7.676 0 0 0-.92 1.983 7.475 7.475 0 0 0-.315 2.134c0 1.021.2 1.9.596 2.638.398.737.99 1.305 1.777 1.704.787.399 1.764.6 2.934.605.456.001.944-.026 1.465-.082a11.405 11.405 0 0 0 1.576-.285 8.083 8.083 0 0 0 1.517-.546l-.251-2.498zm-1.603-5.308c0 .524-.35.895-1.051 1.115-.701.22-1.753.322-3.156.304a3.41 3.41 0 0 1 .486-1.122c.24-.37.56-.676.957-.923.4-.247.878-.374 1.437-.384.417.005.741.098.973.28.232.181.35.425.354.73zM141.01 5.25l-1.05 5.363a4.245 4.245 0 0 0-.85-.206 5.876 5.876 0 0 0-.828-.06c-1.16.009-2.211.227-3.154.655a7.405 7.405 0 0 0-2.429 1.753 7.93 7.93 0 0 0-1.562 2.526 8.295 8.295 0 0 0-.553 2.98c.009.964.183 1.78.525 2.446.34.668.795 1.175 1.367 1.52.571.347 1.207.52 1.907.523.477.002.954-.07 1.43-.216.477-.146.934-.38 1.371-.7a5.248 5.248 0 0 0 1.198-1.268h.05l-.175 1.917h3.3c.025-.712.09-1.465.192-2.26.102-.794.23-1.578.382-2.352l2.476-12.621h-3.597zm-2.203 11.358c-.164.752-.4 1.374-.702 1.867-.305.492-.64.859-1.004 1.1-.365.241-.721.361-1.069.36-.53-.003-.945-.197-1.244-.579-.298-.383-.452-.934-.455-1.655a5.554 5.554 0 0 1 .27-1.7c.18-.555.433-1.059.76-1.512a3.966 3.966 0 0 1 1.162-1.085c.448-.27.942-.408 1.482-.415.304.004.583.045.834.124.251.08.448.176.59.289l-.624 3.206zM144.473 10.5l2.311 10.858c.025.132.034.242.026.33a.513.513 0 0 1-.097.258 5.534 5.534 0 0 1-.807 1.134 6.83 6.83 0 0 1-1.074.95c-.34.243-.685.442-1.033.597a7.96 7.96 0 0 1-.945.359l.763 3.014c.26-.039.596-.135 1.006-.288a8.144 8.144 0 0 0 2.733-1.746c.766-.74 1.512-1.673 2.238-2.798.726-1.123 1.47-2.478 2.238-4.065L156 10.5h-3.62l-2.12 5.27c-.245.64-.445 1.18-.601 1.617-.155.439-.296.83-.423 1.177h-.047c-.048-.374-.102-.79-.165-1.247l-.216-1.596-.715-5.221h-3.62z"/>
        <g>
            <path fill="#F04240" d="M4.279 26.618c.023-.638.546-.988 1.619-.971h10.765c.937-.193 1.032-.7 1.047-1.245-.161-.814-.794-1.068-1.682-1.022H10.41c-1.057-.062-.957-.639-.972-1.12.133-.829.693-.872 1.264-.898h6.623c1.004.028 1.359-.42 1.37-1.12-.08-.763-.544-1.196-1.542-1.17H1.19c-.913-.027-1.177-.485-1.097-1.173.21-.708.82-.833 1.568-.796h14.605c1.082.066 1.631-.312 1.669-1.096-.116-.83-.766-1.124-1.739-1.097h-7.93c-1.548.065-1.475-.484-1.545-.97-.019-.932.66-1.167 1.64-1.098h6.583c.858-.037 1.167-.458 1.198-1.074 0-.767-.422-1.132-1.24-1.12h-3.214c-1.076.016-1.213-.507-1.168-1.17.092-.752.708-.903 1.518-.927h4.549c1.249.118 1.746-.3 1.734-1.076-.154-.854-.83-1.126-1.827-1.033H7.342c-1.51.038-1.422-.608-1.386-1.323.125-.84.897-.812 1.823-.794h5.14c.892.048 1.388-.26 1.463-.95.056-1.02-.451-1.26-1.152-1.23l-1.09.063c-1.228.067-1.37-.453-1.37-1.044C10.87.42 11.366.01 12.326 0H30.75l-.105.018c5.962-.107 11.147 2.991 13.457 8.231 3.079 6.987-.113 15.148-7.123 18.217-2.19.959-4.498 1.308-6.319 1.135-1.118-.142-.518-.044.086.014H5.674c-1.112.16-1.369-.337-1.395-.997m28.999 1.009v-.012h.122l-.122.012m2.334-4.262a10.441 10.441 0 0 0 6.26-9.316l2.393-1.176-3.116-2.88a9.504 9.504 0 0 0-.159-.381c-2.324-5.275-8.507-7.676-13.8-5.36a10.425 10.425 0 0 0-5.535 5.738l-3.119 2.883 2.391 1.176c.031 1.326.316 2.667.885 3.957 2.325 5.274 8.507 7.675 13.8 5.359m-33.533-.76v-.25c0-.498.404-.902.902-.902H4.33c.498 0 .903.404.903.901v.251a.903.903 0 0 1-.903.903H2.98a.903.903 0 0 1-.902-.903m.997-12.854v-.25c0-.498.404-.903.902-.903h2.726c.498 0 .903.405.903.903v.25a.903.903 0 0 1-.903.902H3.978a.902.902 0 0 1-.902-.902m2.063-8.484v-.251c0-.499.404-.903.902-.903h1.622c.498 0 .902.404.902.903v.25a.902.902 0 0 1-.902.902H6.041a.902.902 0 0 1-.902-.901"/>
            <path fill="#333332" d="M40.496 10.387l2.486 2.3-3.613 1.774-.622 3.547-7.346 3.764v-8.776l3.437 2.615 7.197-3.308z"/>
            <path fill="#F04240" d="M22.307 10.387l-2.488 2.3 3.613 1.774.623 3.547 7.346 3.764v-8.776l-3.435 2.615-7.2-3.308z"/>
            <path fill="#333332" d="M23.645 11.086c-.547-.524-.614-.99-.521-1.436.206-.616.583-.987 1.221-.977.55.04.78.493.809 1.203-.243-.514-.633-.404-.83-.096-.182.295.038.55.402.724.572.24 1.032.128 1.44-.15.517-.33 1.121-.907 1.757-1.571.807-.843 1.451-1.292 1.957-1.393.936-.143 1.375.15 1.692.548.319-.397.758-.69 1.695-.548.504.1 1.15.55 1.955 1.393.636.664 1.242 1.242 1.758 1.57.407.28.867.39 1.438.151.366-.173.587-.43.405-.724-.198-.308-.587-.418-.83.096.028-.71.257-1.163.808-1.203.637-.01 1.015.36 1.22.977.093.447.027.912-.52 1.436-.772.711-2.01.876-3.827.368-1.379-.485-2.75-1.12-4.102-2.042-1.35.921-2.72 1.557-4.1 2.042-1.817.508-3.056.343-3.827-.368"/>
        </g>
    </g>
</svg>
