<svg xmlns="http://www.w3.org/2000/svg" width="200" height="200" viewBox="0 0 200 200">
    <g fill="none" fill-rule="evenodd">
        <path fill="#9A8585" d="M66.45 113.467c-6.412-3.688-11.618-.515-11.618 7.083 0 7.597 5.206 16.76 11.619 20.449 6.412 3.688 11.618.515 11.618-7.082 0-7.598-5.206-16.76-11.618-20.45z"/>
        <path fill="#BD9B9B" d="M66.66 118.307c-4.124-2.372-7.472-.396-7.472 4.41s3.348 10.635 7.472 13.007c4.125 2.373 7.474.397 7.474-4.41 0-4.806-3.35-10.634-7.474-13.007z"/>
        <path fill="#FDEDD3" d="M66.852 121.702c-2.646-1.522-4.793-.3-4.793 2.726 0 3.027 2.147 6.719 4.793 8.24 2.645 1.522 4.793.3 4.793-2.726s-2.148-6.718-4.793-8.24z"/>
        <path fill="#7A6972" d="M73.887 131.258l4.16-1.717s7.492-.491 9.611 9.534c1.454 6.876-5.743 8.344-5.743 8.344s3.032-5.808-.56-10.77c-3.435-4.743-6.273-5.22-7.468-5.39z"/>
        <path fill="#B79898" d="M77.155 127.484l-.395 2.6s27.788 33.03 39.916 31.628c5.803.231 13.462-6.106 5.646-34.909-2.133-2.631-8.3-4.702-8.3-4.702l-36.867 5.383z"/>
        <path fill="#FDEDD3" d="M116.914 134.236s-.312 1.009.19 1.497c.503.487 6.35 4.287 7.241 4.65.194-1.223-.208-2.03-.208-2.03s-6.828-4.097-7.223-4.117z"/>
        <path fill="#F6C5A7" d="M117.276 134.283s5.565 3.794 7.387 4.478c1.075-1.765.263-4.011-.25-4.984-.514-.973-1.466-1.043-2.865-1.028-1.4.015-3.961.996-4.272 1.534"/>
        <path fill="#CC3A37" d="M65.847 87.94s-7.33 1.873-11.832 12.044c4.59 6.79 21.202 22.578 39.142 24.157 7.97.64 12.275.781 16.254-6.8 3.98-7.581-6.556-7.652-7.814-8.378-1.257-.726-22.654-25.307-35.75-21.023z"/>
        <path fill="#C77D71" d="M117.04 131.873s-.25 1.812.055 2.387c.605.733 3.571 2.29 3.571 2.29s.173-2.648-.792-3.536c-.965-.889-2.834-1.141-2.834-1.141"/>
        <path fill="#DC7163" d="M51.526 103.229s4.412-11.507 22.71-1.908c18.298 9.6 19.92 33.3 19.92 33.3s-2.067.67-4.092.362c-.369-3.022-3.3-22.039-18.121-29.67-14.822-7.632-20.417-2.084-20.417-2.084z"/>
        <path fill="#992B29" d="M94.054 134.983s-.396 3.426-.196 4.06c.2.633-.01.914 1.655 1.103 1.664.189 4.57.714 7.977-.778 3.406-1.492 11.91-4.051 12.204-11.761-1.655-2.444-2.372-2.544-2.372-2.544s-6.868 10.712-14.327 10.21c-3.8-.284-4.941-.29-4.941-.29z"/>
        <path fill="#EE5B57" d="M94.153 134.777s8.95 1.68 13.192-1.341c4.242-3.023 2.316-11.3.9-12.958-1.415-1.658-1.702 6.91-16.676 2.762 1.716 4.84 1.99 6.33 2.584 11.537z"/>
        <path fill="#ECE2CF" d="M64.186 87.918s-.347 3.138 4.855 5.506c5.203 2.367 3.663.859 3.663.859l-.71-2.2s-3.114.084-5.129-2.629c-2.014-2.713-2.679-1.536-2.679-1.536z"/>
        <path fill="#ECC7A8" d="M46.646 97.056s-2.118-1.036-4.044 2.049c-.44 2.405.264 2.95.66 3.298.411.36-.506-2.055.866-3.329 1.372-1.273 2.518-2.018 2.518-2.018z"/>
        <path fill="#C5A2A1" d="M62.91 87.642s-6.26 2.173-10.065 9.77c.44 1.557 1.303 2.998 1.303 2.998s2.076-5.736 9.985-11.512c-.329-.696-1.222-1.256-1.222-1.256z"/>
        <path fill="#C5A2A1" d="M49.393 99.486l1.632 1.595 2.724-1.906-.884-1.572z"/>
        <path fill="#7A6972" d="M46.726 96.99s4.375 1.518 4.397 5.32c-.039 1.723-2.117 2.06-3.723 1.804-1.607-.256-3.755-1.23-4.207-1.805-.098-1.18-.491-3.358 3.533-5.32z"/>
        <path fill="#796B6B" d="M158.593 189.113s6.653-.136 10.933-6.134c2.343-4.684 2.202-13.263-2.688-19.851-5.505-7.419-12.034-8.204-12.034-8.204l-8.863 1.662s13.147 5.293 15.405 13.945c2.258 8.651 2.294 14.23-2.753 18.582z"/>
        <path fill="#F54070" d="M60.48 85.833s-8.367 1.558-8.231 9.342c.101 1.164.75 2.551.75 2.551s3.122-6.85 9.635-9.864c-1.523-1.758-2.154-2.03-2.154-2.03z"/>
        <path fill="#ECE2CF" d="M57.574 84.518l1.819 7.462 1.088-1.032-1.754-5.679z"/>
        <path fill="#A0BAC0" d="M154.725 165.554s-7.728-7.506-11.35-.385c-1.822 3.6.541 11.503 4.093 15.067 3.552 3.565 9.885 6.857 12.118 1.084 2.962-7.657-4.861-15.766-4.861-15.766z"/>
        <path fill="#9A8585" d="M151.914 158.524c-6.975-4.012-12.637-.791-12.637 7.188 0 7.98 5.662 17.715 12.637 21.728 6.975 4.012 12.638.79 12.638-7.189s-5.663-17.715-12.638-21.727z"/>
        <path fill="#FDEDD3" d="M151.298 165.867c-3.27-1.881-5.926-.37-5.926 3.37 0 3.742 2.655 8.308 5.926 10.189 3.27 1.881 5.926.37 5.926-3.37 0-3.742-2.656-8.307-5.926-10.189z"/>
        <path fill="#7A6972" d="M146.116 155.708s1.627 4.372 3.298 8.734c1.746 4.558 3.443 9.03 2.138 9.273-1.59 1.268-6.33-11.523-6.33-11.523l-2.732-5.898 3.626-.586"/>
        <path fill="#615656" d="M109.117 91.715l15.186 9.674s1.746 1.225 3.066 3.558c1.32 2.333-1.172 26.727-1.172 26.727s-1.983 2.719-4.862 2.459c-2.879-.26-4.727-2.728-4.727-2.728l-1.83-13.757-12.254-17.896 6.593-8.037z"/>
        <path fill="#B0ADAB" d="M142.165 156.523l7.187 15.47s1.032 2.21 2.032 1.754c.94-.428-.082-2.709-.082-2.709l-5.978-14.99-3.16.475z"/>
        <path fill="#E0A08B" d="M125.318 100.48l-5.79 3.397 2.046 1.204 4.418-2.81z"/>
        <path fill="#E0A08B" d="M122.579 92.183s3.412 13.127 3.907 14.786c4.93-1.097 9.578-4.114 9.578-4.114s-2.768-11.424-3.438-12.484c-.67-1.06-3.363-.512-5.201-.248-1.838.264-4.846 2.06-4.846 2.06M80.484 134.165c-1.22-1.44-7.29-6.324-8.549.285-1.492 7.838 4.574 13.472 7.233 13.702 2.66.23 5.98-1.692 4.345-8.44-.398-1.643-1.727-4.009-3.029-5.547z"/>
        <path fill="#AA7171" d="M140.026 99.19s-14.965 2.496-18.146 13.91c-2.7 9.688-.014 14.595.916 18.545.93 3.95 5.102 26.465-4.695 29.845 7.297 1.16 10.06-7.41 8.352-18.003-1.708-10.594-5.714-23.9-2.572-28.622 3.141-4.723 10.295-13.89 15.139-14.378 1.221-.358 2.043-.573 1.006-1.297z"/>
        <path fill="#F04240" d="M132.098 103.316s7.847-6.936 13.44-1.054c5.591 5.881 10.565 18.907 9.241 31.386-1.324 12.48-14.847 33.868-35.98 33.312-15.235-.4-29.775-19.588-37.525-31.265-3.59-5.408-7.548-4.46-7.548-4.46l3.078-1.319s1.752-.382 4.784 3.185c6.636 7.808 21.239 22.518 27.66 25.87 8.808 4.598 17.964 4.554 17.118-11.562-.845-16.116-5.192-22.662-3.375-30.854 1.816-8.192 9.107-13.24 9.107-13.24z"/>
        <path fill="#CC3A37" d="M148.737 136.793l-6.585 2.357s-1.683.505-2.333 3.384c-.651 2.88-5.503 15.948-5.721 17.748.425.779.884.158.884.158s4.644-4.135 10.876-3.225c6.233.91 13.406 3.159 18.653 1.086 5.246-2.073 4.074-6.682-1.385-11.453-5.46-4.771-8.131-5.464-10.147-6.453-1.58-.81-2.022-1.554-3.188-3.333-.558-.682-1.054-.269-1.054-.269z"/>
        <path fill="#F6C5A7" d="M143.35 142.508s-2.686 1.24-2.255 3.113c.462 2.007 1.6 2.7 4.71 4.103 3.11 1.402 4.966 2.039 6.898 3.862 1.705 1.609 2.347 3.085 3.375 2.493 1.028-.592.478-5.046-2.016-7.132-2.493-2.086-2.696-1.176-5.832-3.478-2.678-1.966-2.074-2.176-3.255-2.994-.53-.366-1.625.033-1.625.033" opacity=".395"/>
        <path fill="#CC3A37" d="M139.764 99.09s-11.584 1.438-12 6.293c2.486 4.335 9.402 17.736 12.225 30.278.372 1.425 1.236 2.676 2.27 2.526 1.034-.149 6.314-2.232 6.314-2.232s1.69.113 1.637-5.538c-.054-5.652-.128-17.718-8.096-29.575-.993-1.482-2.35-1.752-2.35-1.752z"/>
        <path fill="#B0ADAB" d="M146.133 107.596s-2.39-1.414-5.84-.745c-3.45.668-3.812 5.873-2.867 8.263.53 1.34 3.433 4.127 7.438 2.406 4.006-1.721 1.269-9.924 1.269-9.924z"/>
        <path fill="#F9E685" d="M143.973 107.402c-.352.022-5.17.34-4.718 5.95.23 2.85 2.968 3.968 4.363 4.033 2.146.1 5.25-1.807 4.913-5.446-.295-3.17-3.282-4.617-4.558-4.537z"/>
        <path fill="#E0A08B" d="M121.728 104.74s-4.214-2.758-6.37-.05c-.45 2.294 1 4.204 3.39 5.23.84.166 2.98-5.18 2.98-5.18zM139.324 91.131s2.993-2.373 6.507.502c2.045 1.718 1.45 5.201-.787 5.252-2.233.051-3.779-.515-4.73-1.725-.95-1.21-1.247-2.288-.99-4.029z"/>
        <path fill="#F5DC5F" d="M145.049 91.165s-3.354 1.388-2.847 5.539c1.638.518 4.163.732 4.876-1.137.713-1.868-.375-4.166-2.029-4.402zM121.71 104.743s-3.645-.116-2.807 5.23c1.466.246 4.116.274 4.349-1.874.276-2.543-1.542-3.356-1.542-3.356z"/>
        <path fill="#E0A08B" d="M134.167 96.236l5.513-3.527s1.835-.651 1.556 1.497c-.875.79-6.442 3.942-6.442 3.942l-.627-1.912"/>
        <path fill="#D3E2E6" d="M145.487 85.95s1.707.295.734 1.326c-.244.224-.767.23-.948-.382-.258-.238-.96-.468-2.262.264-1.302.733-1.892.32-2.044.196-.152-.125.225-.46.225-.46s.774.194 2.41-.677c.777-.334 1.885-.267 1.885-.267z"/>
        <path fill="#796B6B" d="M139.334 84.64l3.288-1.88s1.395.223 1.193 2.197c-1.392.796-3.41 2.033-3.41 2.033l-1.071-2.35z"/>
        <path fill="#E9C5AD" d="M111.59 67.628s-.264 5.342.368 6.45c.632 1.107 3.017 4.8 9.948 7.419 6.93 2.618 8.115 2.963 8.115 2.963s.437 2.79 1.087 3.313c.65.523 5.19 3.558 6.072 3.373.882-.186.665-.866.086-1.547-.58-.682-3.13-.543-2.727-2.653.072-.374 1.465-.286 1.875.109.411.394 2.175 3.217 3.408 3.19 1.999-.046 2.58-4.975 1.394-6.59-1.185-1.617-8.506-3.108-8.506-3.108s-13.309-8.657-14.182-9.754c-.873-1.096-1.543-2.97-1.67-4.033-1.79.018-5.268.868-5.268.868z"/>
        <path fill="#7A6972" d="M127.011 89.877c-1.488.388-4.963 1.837-4.229 2.758 1.176 1.475 11.206-.879 9.667-2.612-.88-.992-3.936-.537-5.438-.146z"/>
        <path fill="#B0ADAB" d="M143.369 77.057l-7.48 9.707.514.402 7.36-9.81z"/>
        <path fill="#333" d="M135.498 86.559s-1.518-.3-1.089 1.636c.366 1.016 1.93 2.4 2.848 1.296.917-1.104-.77-2.767-1.759-2.932z"/>
        <path fill="#B0ADAB" d="M135.2 87.416s-2.877 1.938-1.86 5.838c1.033 3.961-.766 4.632-1.344 4.884-.946.413-2.782.8-5.277-2.473-2.43-3.187-6.179-1.586-6.948-1.035.569.832.841 1.642.763 2.27 1.082-.522 2.655-2.426 4.776.081s4.039 4.42 7.951 2.755c3.913-1.666 1.62-6.302 1.75-8.238.129-1.937.787-2.007 1.256-2.57.106-.464.18-1.218-1.067-1.512z"/>
        <path fill="#333" d="M101.092 111.553s-8.663 1.956-17.577-4.7c-8.915-6.658-12.368-12.77-12.511-16.705 2.217-1.464 4.866-2.973 4.866-2.973s5.452 17.848 17.45 19.496c2.23.498 4.579 2.33 4.579 2.33l3.193 2.552z"/>
        <path fill="#CC3A37" d="M74.294 126.992s-5.572 3.146-12.295-.908c-6.722-4.055-13.27-9.472-13.27-9.472s1.878-5.654 4.973-4.698c3.095.956 20.894 15.024 20.592 15.078"/>
        <path fill="#7A6972" d="M80.54 82.424s-7.83 3.588-4.238 10.868c3.59 7.28 11.124 14.23 19.13 14.077 8.005-.153-4.884-16.794-4.884-16.794s-4.166-9.778-10.008-8.15z"/>
        <path fill="#FDEDD3" d="M99.97 145.003s-.524 1.803 1.046 2.757c1.57.954 7.657 4.037 9.937 5.113 1.75.826 7.302 3.01 10.088-.246.21-.724.374-1.344-.104-1.637-.837.728-3.283 1.964-5.91 1.506-2.628-.459-15.006-7.468-15.057-7.493z"/>
        <path fill="#992B29" d="M96.778 74.108L68.963 91.502l-.169-32.785 27.895-15.771z"/>
        <path fill="#F04240" d="M96.625 42.521L58.594 20.982 31.02 36.83l38.036 21.823zM69.043 91.595l-37.36-21.617-.257-32.853 37.513 21.507z"/>
        <path fill="#CC3A37" d="M31.12 36.71v7.264l37.932 22.347-.026-7.813z"/>
        <path fill="#CC3A37" d="M96.625 42.521v7.265L68.987 65.912l.063-7.394z"/>
        <path fill="#F6C5A7" d="M100.953 142.491l-.33 2.957s7.935 5.398 13.608 7.18c5.523 1.735 7.971-2.612 4.756-4.747-3.215-2.136-5.912-3.648-6.976-5.846-1.063-2.199-11.058.456-11.058.456z"/>
        <path fill="#C77D71" d="M120.069 148.484s-3.76.55-6.084 3.927c2.165.748 4.234 1.018 6.757-.32 1.057-.56.55-2.645-.673-3.607zM101.12 142s3.867.655 3.755 6.047c-1.715-.743-3.946-1.905-4.657-2.863.276-3.243 1.058-3.207.902-3.183"/>
        <path fill="#6E6262" d="M82.866 94.222s-1.203 3.384 5.297 8.411c6.5 5.027 12.992 9.15 14.826 12.752 1.834 3.603-.91 15.065-1.422 20.167-.513 5.102-1.938 7.336.533 8.149 2.47.812 7.952 1.308 10.228-.89-.157-1.722-.547-2.077-.269-4.719.279-2.642 2.54-16.825 3.175-20.128.635-3.303 2.883-4.974-9.032-17.188-11.914-12.214-23.336-6.554-23.336-6.554z"/>
        <path fill="#333" d="M108.526 47.203s5.294-1.38 6.538 5.338c1.243 6.72 2.147 14.043 2.147 14.043s-1.701 1.843-5.167 1.693c-.348-4.176-3.518-21.074-3.518-21.074z"/>
        <path fill="#FF6944" d="M100.244 46.856s4.624-2.052 7.8-.91c3.177 1.144 6.1 2.88 5.53 11.455-.571 8.575-3.056 36.572-3.72 37.906-.877 1.354-9.256 7.675-16.544 6.236-7.287-1.439-11.728-4.956-11.78-8.075-.05-3.119 1.945-17.025 2.54-26.049.595-9.024-1.63-13.244 10.122-18.465 4.656-1.715 6.052-2.098 6.052-2.098z"/>
        <path fill="#796B6B" d="M117.299 95.295l-7.627 4.165s1.342.214 1.332 2.28c1.357-.609 7.728-3.784 7.728-3.784s.2-2.704-1.433-2.66z"/>
        <path fill="#E9C5AD" d="M94.096 73.328s-4.972 1.54-8.477-.68c-.15 2.168.115 8.14.87 9.952.756 1.813 3.868 4.93 6.212 6.278 2.344 1.349 15.555 8.155 15.555 8.155s3.765 3.94 5.93 4.04c2.167.099 4.437-.88 4.315-2.303-.122-1.422-.21-2.94-3.835-4.594-3.626-1.654-13.41-9.02-15.462-10.54-2.053-1.52-4.584-3.157-4.71-4.66-.125-1.505-.398-5.648-.398-5.648z"/>
        <path fill="#333" d="M90.117 54.611s-2.5-1.765-4.623 1.125c-2.121 2.89-3.017 16.061-3.017 16.061s5.165 3.737 9.167 2.884c4.003-.852 3.068-2.037 2.958-6.949-.11-4.912-.196-10.317-4.485-13.12"/>
        <path fill="#E9C5AD" d="M97.494 39.065s1.266 6.583-1.562 8.558c-2.827 1.973-3.27 1.929-3.27 1.929s2.458 1.199 6.442 5.989c3.05 3.665 7.422.908 7.717-1.13.473-3.265-.059-4.856-.072-6.313-.013-1.457-9.255-9.033-9.255-9.033z"/>
        <path fill="#FBBE9F" d="M115.64 37.009s-2.172 9.347-5.116 12.083c-2.341 2.175-4.145 1.528-5.531 1.349-2.802-.362-5.227-3.96-6.23-5.752-.976-1.746-.077-5.7-.077-5.7l4.045-7.417 12.91 5.437z"/>
        <path fill="#323232" d="M111.193 43.7l-.18 1.528c2.052 1.55 3.31 1.862 4.45 1.682 1.139-.18 1.957-1.299 2.051-2.098.095-.799-.172-1.336-.793-1.238-.415.066-.67.504-.765 1.315.079-.24.196-.372.351-.397.233-.037.334.186.313.36-.02.173-.138.737-1.044.88-.828.132-1.547-1.527-1.877-1.952-.331-.425-.697-.98-1.422-.865-.483.076-.845.338-1.084.785zm0 0c-.14-.387-.452-.542-.936-.466-.724.115-1.238.81-1.684 1.358-.446.548-1.592 2.502-2.42 2.633-.906.144-.892-.404-.872-.578.02-.173.179-.437.412-.474.155-.024.245.075.27.298.095-.81-.064-1.183-.478-1.117-.621.098-1.028.742-1.122 1.541-.095.8.485 1.696 1.624 1.516 1.14-.18 2.521-.911 5.025-3.183l.181-1.528zM107.043 35.313s-2.258.317-2.678 2.81c-.42 2.495-2.081 2.531-2.513 2.528.124-.871.532-2.535.435-3.86-.096-1.325 1.345-3.653 2.18-3.256.836.398 1.838 1.047 2.576 1.778z"/>
        <path fill="#CC374A" d="M103.074 33.955s7.63 4.33 14.793 3.824c3.183-.173 1.437-2.887.282-3.503-1.749.027-15.075-.321-15.075-.321"/>
        <path fill="#F04240" d="M104.848 34.385s12.455.678 13.312.09c.283-1.261.668-7.246-4.461-11.745-5.13-4.498-11.552-2.268-13.282-1.46-1.73.81-6.992 4.895-6.529 10.547.463 5.654 3.285 9.686 5.567 10.3 1.182.354 3.017-4.871 3.297-6.117.367-1.633 1.382-1.6 2.096-1.615z"/>
        <path fill="#B0ADAB" d="M120.186 90.259l3.612 2.227s.627.273.54 2.102c-.346.078-.533-.272-.533-.272s.154-1.028-.42-1.543c-.71-.635-3.368-1.813-3.368-1.813l.169-.701z"/>
        <path fill="#B0ADAB" d="M117.62 85.247s-4.197 1.622-3.835 6.503c.185 2.48 2.433 2.394 2.949 2.344 1.3-.126 4.166-2.062 4.032-5.955-.123-3.55-3.146-2.892-3.146-2.892z"/>
        <path fill="#F04240" d="M51.6 103.065s-3.362 4.221-2.052 5.801c1.309 1.58 9.786 5.955 18.346 12.966 8.56 7.01 12.407 8.198 13.74 9.506 1.335 1.308 3.397 4.13 8.695 3.62-.573-3.157-1.97-20.703-18.55-29.728-14.018-7.631-20.179-2.165-20.179-2.165z"/>
        <path fill="#FDEDD3" d="M79.524 135.45c-1.088-1.272-5.413-4.955-6.337.33-.863 4.934 3.63 10.13 5.651 10.304 2.022.174 4.541-1.059 3.113-6.38-.297-1.105-1.235-2.858-2.427-4.253z"/>
        <path fill="#333" d="M116.776 95.074l1.772-1.032s2.303.363 2.002 3.229c-1.203.84-1.884 1.021-1.884 1.021s.321-2.231-1.89-3.218z"/>
        <path fill="#B0ADAB" d="M145.378 71.855s-3.754 1.11-3.702 6.468c.01 1.097 1.252 2.697 3.475 1.964 1.29-.424 3.942-2.73 3.822-5.565-.158-3.746-3.595-2.867-3.595-2.867z"/>
        <path fill-rule="nonzero" stroke="#FFF" stroke-opacity=".05" d="M199.5.5H.5v199h199z"/>
    </g>
</svg>
