<svg xmlns="http://www.w3.org/2000/svg" width="182.25" height="54" viewBox="0 0 182.25 54">
    <defs>
        <style>
            .cls-1{fill:#a6a6a6}.cls-10,.cls-2,.cls-3{fill:#fff}.cls-2{stroke:#fff;stroke-miterlimit:10;stroke-width:.2px}.cls-4{fill:url(#linear-gradient)}.cls-5{fill:url(#linear-gradient-2)}.cls-6{fill:url(#linear-gradient-3)}.cls-7{fill:url(#linear-gradient-4)}.cls-8{opacity:.2}.cls-9{opacity:.12}.cls-10{opacity:.25}
        </style>
        <linearGradient id="linear-gradient" x1=".915" x2="-.383" y1="6.614" y2="5.945" gradientUnits="objectBoundingBox">
            <stop offset="0" stop-color="#00a0ff"/>
            <stop offset=".007" stop-color="#00a1ff"/>
            <stop offset=".26" stop-color="#00beff"/>
            <stop offset=".512" stop-color="#00d2ff"/>
            <stop offset=".76" stop-color="#00dfff"/>
            <stop offset="1" stop-color="#00e3ff"/>
        </linearGradient>
        <linearGradient id="linear-gradient-2" x1="1.076" x2="-1.305" y1="17.098" y2="17.098" gradientUnits="objectBoundingBox">
            <stop offset="0" stop-color="#ffe000"/>
            <stop offset=".409" stop-color="#ffbd00"/>
            <stop offset=".775" stop-color="orange"/>
            <stop offset="1" stop-color="#ff9c00"/>
        </linearGradient>
        <linearGradient id="linear-gradient-3" x1=".862" x2="-.501" y1="10.863" y2="9.093" gradientUnits="objectBoundingBox">
            <stop offset="0" stop-color="#ff3a44"/>
            <stop offset="1" stop-color="#c31162"/>
        </linearGradient>
        <linearGradient id="linear-gradient-4" x1="-.188" x2=".421" y1="13.583" y2="12.793" gradientUnits="objectBoundingBox">
            <stop offset="0" stop-color="#32a071"/>
            <stop offset=".068" stop-color="#2da771"/>
            <stop offset=".476" stop-color="#15cf74"/>
            <stop offset=".801" stop-color="#06e775"/>
            <stop offset="1" stop-color="#00f076"/>
        </linearGradient>
    </defs>
    <g id="Group_78905" data-name="Group 78905" transform="translate(-10 -10)">
        <rect id="Rectangle_9224" width="182.25" height="54" data-name="Rectangle 9224" rx="7" transform="translate(10 10)"/>
        <g id="Group_78900" data-name="Group 78900" transform="translate(10 10)">
            <g id="Group_78899" data-name="Group 78899">
                <path id="Path_110230" d="M185.5 11.08a5.676 5.676 0 0 1 5.67 5.67v40.5a5.676 5.676 0 0 1-5.67 5.67H16.75a5.676 5.676 0 0 1-5.67-5.67v-40.5a5.676 5.676 0 0 1 5.67-5.67H185.5m0-1.08H16.75A6.77 6.77 0 0 0 10 16.75v40.5A6.77 6.77 0 0 0 16.75 64H185.5a6.77 6.77 0 0 0 6.75-6.75v-40.5A6.77 6.77 0 0 0 185.5 10z" class="cls-1" data-name="Path 110230" transform="translate(-10 -10)"/>
            </g>
        </g>
        <g id="Group_78901" data-name="Group 78901" transform="translate(65.825 19.269)">
            <path id="Path_110231" d="M59.541 21.425a3.657 3.657 0 0 1-1.006 2.7 3.926 3.926 0 0 1-2.975 1.2 4.172 4.172 0 0 1-4.208-4.225 4.172 4.172 0 0 1 4.208-4.231 4.193 4.193 0 0 1 1.663.339 3.332 3.332 0 0 1 1.266.906l-.711.711a2.74 2.74 0 0 0-2.218-.96 3.132 3.132 0 0 0-3.146 3.235 3.186 3.186 0 0 0 5.408 2.331 2.554 2.554 0 0 0 .679-1.642H55.56v-.972h3.926a3.452 3.452 0 0 1 .055.608z" class="cls-2" data-name="Path 110231" transform="translate(-51.352 -16.866)"/>
            <path id="Path_110232" d="M63.254 17.995h-3.69v2.569h3.326v.972h-3.326v2.569h3.69v.995h-4.729V17h4.729z" class="cls-2" data-name="Path 110232" transform="translate(-48.841 -16.819)"/>
            <path id="Path_110233" d="M66.135 25.1h-1.042v-7.105h-2.261V17H68.4v.995h-2.265z" class="cls-2" data-name="Path 110233" transform="translate(-47.334 -16.819)"/>
            <path id="Path_110234" d="M69.938 25.1V17h1.039v8.1z" class="cls-2" data-name="Path 110234" transform="translate(-44.847 -16.819)"/>
            <path id="Path_110235" d="M74.984 25.1h-1.04v-7.105h-2.263V17h5.566v.995h-2.263z" class="cls-2" data-name="Path 110235" transform="translate(-44.237 -16.819)"/>
            <path id="Path_110236" d="M85.458 24.1a4.206 4.206 0 0 1-5.939 0 4.377 4.377 0 0 1 0-6.007 4.193 4.193 0 0 1 5.933.005 4.363 4.363 0 0 1 .005 6zm-5.17-.679a3.116 3.116 0 0 0 4.4 0 3.17 3.17 0 0 0 .9-2.325 3.17 3.17 0 0 0-.9-2.325 3.116 3.116 0 0 0-4.4 0 3.175 3.175 0 0 0-.9 2.325 3.175 3.175 0 0 0 .9 2.326z" class="cls-2" data-name="Path 110236" transform="translate(-41.911 -16.866)"/>
            <path id="Path_110237" d="M85.575 25.1V17h1.268l3.937 6.3h.045l-.045-1.561V17h1.04v8.1h-1.085l-4.119-6.607h-.045l.045 1.562V25.1z" class="cls-2" data-name="Path 110237" transform="translate(-39.374 -16.819)"/>
        </g>
        <path id="Path_110238" d="M87.619 33.4a5.742 5.742 0 1 0 5.763 5.742 5.659 5.659 0 0 0-5.763-5.742zm0 9.22a3.488 3.488 0 1 1 3.24-3.479 3.322 3.322 0 0 1-3.24 3.478zM75.046 33.4a5.742 5.742 0 1 0 5.763 5.742 5.659 5.659 0 0 0-5.763-5.742zm0 9.22a3.488 3.488 0 1 1 3.24-3.479 3.322 3.322 0 0 1-3.24 3.478zM60.09 35.16v2.44h5.828a5.083 5.083 0 0 1-1.326 3.066 5.968 5.968 0 0 1-4.5 1.783 6.481 6.481 0 0 1 0-12.961 6.21 6.21 0 0 1 4.393 1.74l1.715-1.723a8.5 8.5 0 0 0-6.111-2.458 8.918 8.918 0 1 0 0 17.835 8.149 8.149 0 0 0 6.219-2.5 8.049 8.049 0 0 0 2.11-5.7 7.869 7.869 0 0 0-.131-1.521zm61.166 1.891a5.336 5.336 0 0 0-4.916-3.651 5.456 5.456 0 0 0-5.415 5.742 5.619 5.619 0 0 0 5.7 5.742 5.71 5.71 0 0 0 4.784-2.545l-1.958-1.305a3.28 3.28 0 0 1-2.827 1.588 2.922 2.922 0 0 1-2.785-1.739l7.677-3.177zm-7.83 1.914a3.15 3.15 0 0 1 3-3.349 2.221 2.221 0 0 1 2.132 1.218zm-6.241 5.567h2.522V27.656h-2.522zm-4.134-9.852h-.086a3.979 3.979 0 0 0-3.023-1.28 5.747 5.747 0 0 0 0 11.483 3.912 3.912 0 0 0 3.023-1.305h.086v.822c0 2.2-1.173 3.371-3.066 3.371a3.178 3.178 0 0 1-2.893-2.045l-2.2.914a5.471 5.471 0 0 0 5.089 3.393c2.958 0 5.459-1.74 5.459-5.98V33.746h-2.394zm-2.892 7.938a3.492 3.492 0 0 1 0-6.959 3.235 3.235 0 0 1 3.066 3.5 3.207 3.207 0 0 1-3.066 3.46zm32.914-14.962h-6.036v16.878h2.518V38.14h3.518a5.249 5.249 0 1 0 0-10.483zm.065 8.134h-3.583v-5.784h3.583a2.893 2.893 0 1 1 0 5.785zm15.568-2.423a4.732 4.732 0 0 0-4.5 2.583l2.237.934a2.386 2.386 0 0 1 2.3-1.238 2.425 2.425 0 0 1 2.649 2.172v.173a5.572 5.572 0 0 0-2.627-.651c-2.41 0-4.864 1.324-4.864 3.8 0 2.259 1.976 3.714 4.19 3.714a3.554 3.554 0 0 0 3.214-1.651h.086v1.3h2.431v-6.468c.007-2.996-2.228-4.667-5.116-4.667zm-.3 9.249c-.826 0-1.976-.412-1.976-1.432 0-1.3 1.432-1.8 2.67-1.8a4.494 4.494 0 0 1 2.3.564 3.054 3.054 0 0 1-3 2.669zm14.286-8.88l-2.892 7.317h-.086l-3-7.317H154l4.5 10.226-2.562 5.689h2.627l6.927-15.915zM140 44.534h2.519V27.657H140z" class="cls-3" data-name="Path 110238" transform="translate(14.365 5.966)"/>
        <g id="Group_78903" data-name="Group 78903" transform="translate(23.464 19.64)">
            <path id="Path_110239" d="M20.6 17.564a2.709 2.709 0 0 0-.624 1.9v29.853a2.707 2.707 0 0 0 .624 1.9l.1.1 16.722-16.731v-.394L20.7 17.465z" class="cls-4" data-name="Path 110239" transform="translate(-19.973 -17.027)"/>
            <path id="Path_110240" d="M38.473 37.273L32.9 31.7v-.4l5.577-5.577.126.073 6.606 3.753c1.886 1.072 1.886 2.826 0 3.9L38.6 37.2z" class="cls-5" data-name="Path 110240" transform="translate(-15.449 -14.136)"/>
            <path id="Path_110241" d="M42.962 35.7L37.26 30 20.435 46.826a2.2 2.2 0 0 0 2.807.082L42.962 35.7" class="cls-6" data-name="Path 110241" transform="translate(-19.811 -12.639)"/>
            <path id="Path_110242" d="M42.962 28.8L23.241 17.6a2.2 2.2 0 0 0-2.807.082L37.26 34.5z" class="cls-7" data-name="Path 110242" transform="translate(-19.811 -17.14)"/>
            <g id="Group_78902" data-name="Group 78902" transform="translate(0 22.939)">
                <path id="Path_110243" d="M42.837 34.132l-19.6 11.133a2.248 2.248 0 0 1-2.705.015l-.1.1.1.1a2.248 2.248 0 0 0 2.705-.015l19.721-11.2z" class="cls-8" data-name="Path 110243" transform="translate(-19.811 -34.132)"/>
                <path id="Path_110244" d="M20.6 42.81a2.707 2.707 0 0 1-.624-1.9v.2a2.7 2.7 0 0 0 .624 1.9l.1-.1z" class="cls-9" data-name="Path 110244" transform="translate(-19.973 -31.759)"/>
            </g>
            <path id="Path_110245" d="M43.76 31.753l-6.731 3.825.126.126 6.605-3.754A2.37 2.37 0 0 0 45.175 30a2.512 2.512 0 0 1-1.415 1.753z" class="cls-9" data-name="Path 110245" transform="translate(-14.003 -12.639)"/>
            <path id="Path_110246" d="M23.4 17.792L49.73 32.75a2.512 2.512 0 0 1 1.414 1.75 2.366 2.366 0 0 0-1.415-1.949L23.4 17.595c-1.887-1.072-3.43-.181-3.43 1.979v.2c.003-2.163 1.546-3.054 3.43-1.982z" class="cls-10" data-name="Path 110246" transform="translate(-19.973 -17.14)"/>
        </g>
    </g>
</svg>
